<svg width="78" height="78" viewBox="0 0 78 78" fill="none" xmlns="http://www.w3.org/2000/svg">
<path d="M38.9943 36.3275C40.0018 36.3275 41.1492 36.177 42.3441 35.8918V5H35.7422V35.9156C36.9015 36.1849 38.0146 36.3275 38.9943 36.3275Z" fill="#FAB900"/>
<path d="M48.9467 32.9685V11.6019H42.3447V35.3689C44.5749 34.8381 46.9674 34.3549 48.9467 32.9685Z" fill="#FDEB08"/>
<path d="M51.871 30.1772C52.782 28.9069 54.0826 28.0012 55.5482 27.5826V16.8835H48.9463V32.7281C50.1016 31.9201 51.1183 31.2282 51.871 30.1772Z" fill="#E09A0A"/>
<path d="M57.3713 27.3172H61.1463C61.4988 27.3172 61.8303 27.3832 62.1498 27.4783V20.8447H55.5479V27.5826C56.1354 27.4149 56.7454 27.3172 57.3713 27.3172Z" fill="#FDEB08"/>
<path d="M35.7426 35.3689V11.6019H29.1406V33.0332C31.1305 34.4064 33.5217 34.8526 35.7426 35.3689Z" fill="#FDEB08"/>
<path d="M26.1243 30.1772C26.898 31.2559 27.9477 31.9055 29.14 32.7281V16.8835H22.5381V27.6103C23.9654 28.0408 25.233 28.932 26.1243 30.1772Z" fill="#F8B700"/>
<path d="M16.8489 27.3172H20.6239C21.2828 27.3172 21.9245 27.4255 22.5385 27.6117V20.8447H15.9365V27.4453C16.2283 27.3687 16.5307 27.3172 16.8489 27.3172Z" fill="#FDEB08"/>
<path d="M57.3718 26.657C55.2024 26.657 53.1584 27.6948 51.9067 29.4668C49.1867 33.3157 42.9954 35.6687 38.9946 35.6687C34.9938 35.6687 28.8091 33.3171 26.0891 29.4668C24.8374 27.6948 22.7934 26.657 20.624 26.657H16.849C14.6546 26.657 13.346 28.5755 13.346 30.7925V31.0235C13.3144 43.9515 15.4666 56.7922 19.7143 69.0019L20.0114 69.8562C20.6135 71.5859 22.6033 73 24.4347 73H53.5638C55.9035 73 57.8999 71.3086 58.2841 69.0019C62.5912 56.7962 64.7461 43.9356 64.6537 30.9932L64.6524 30.7925C64.6524 28.5755 63.3439 26.657 61.1494 26.657H57.3718V26.657Z" fill="#D32500"/>
<path d="M61.1477 33.7818H57.3727C55.2033 33.7818 53.1594 34.8197 51.9076 36.5916C49.1876 40.4405 42.9963 42.7935 38.9955 42.7935C34.9948 42.7935 28.8101 40.4419 26.0901 36.5916C24.8383 34.8197 22.7944 33.7818 20.625 33.7818H16.8487C15.0556 33.7818 13.8686 35.0692 13.4883 36.7461C14.0098 47.7317 16.0934 58.5959 19.7139 69.0005C19.7139 69.0005 31.1406 66.3967 39.0444 66.3967C46.9377 66.3967 58.2349 69.2857 58.2825 69.0005C61.9413 58.6302 64.0301 47.7845 64.5253 36.82C64.1635 35.1062 62.9672 33.7818 61.1477 33.7818Z" fill="#F55E30"/>
<path d="M39.7037 61.1165C44.8083 61.1165 48.9464 58.1607 48.9464 54.5146C48.9464 50.8684 44.8083 47.9126 39.7037 47.9126C34.599 47.9126 30.4609 50.8684 30.4609 54.5146C30.4609 58.1607 34.599 61.1165 39.7037 61.1165Z" fill="#FAC84D"/>
</svg>
