<svg width="72" height="72" viewBox="0 0 72 72" fill="none" xmlns="http://www.w3.org/2000/svg">
<g clip-path="url(#clip0)">
<path d="M57.4876 18.1403C57.4876 16.8954 56.7832 15.8244 55.7522 15.2538C56.2402 14.2578 56.5217 13.1468 56.5217 11.9681C56.5217 7.7728 53.0596 4.37201 48.7892 4.37201C47.6731 4.37201 46.6146 4.60849 45.6562 5.02765C44.5138 3.4824 42.6658 2.47267 40.5738 2.47267C38.2027 2.47267 36.1407 3.76392 35.0709 5.66827C33.8923 4.85373 32.4584 4.37201 30.9081 4.37201C26.9043 4.37201 23.6586 7.5601 23.6586 11.4939C23.6586 11.7879 23.6824 12.077 23.7174 12.361C20.8722 13.3232 18.8252 15.9682 18.8252 19.09C18.8252 21.5249 20.0702 23.672 21.967 24.9557C21.21 25.9754 20.7583 27.2266 20.7583 28.5855C20.7583 31.9938 23.571 34.7577 27.0407 34.7577C28.4933 34.7577 29.8258 34.2685 30.8906 33.4564C32.292 35.3908 34.588 36.657 37.1905 36.657C39.9406 36.657 42.3492 35.2419 43.7206 33.1173C44.6427 34.6651 46.3493 35.7074 48.3062 35.7074C51.2428 35.7074 53.6226 33.3688 53.6226 30.4848C53.6226 29.8379 53.4975 29.2211 53.2786 28.6493C55.1854 27.856 56.5229 26.0005 56.5229 23.8384C56.5229 22.8149 56.2189 21.8614 55.6996 21.0557C56.7582 20.4939 57.4876 19.4066 57.4876 18.1403Z" fill="#88C057"/>
<path d="M29.568 34.2109C28.7923 34.55 27.9439 34.7577 27.0393 34.7577C23.5697 34.7577 20.757 31.9938 20.757 28.5855C20.757 27.2266 21.2087 25.9754 21.9657 24.9557C20.0688 23.6719 18.8239 21.5249 18.8239 19.09C18.8239 17.9114 19.1179 16.8003 19.6346 15.8231C17.5614 14.5907 14.8325 14.8396 13.042 16.5976C12.8844 16.7527 12.743 16.9167 12.6091 17.0843C10.5984 16.1209 8.10598 16.455 6.43561 18.0953C5.1331 19.3753 4.63887 21.147 4.94792 22.8024C4.00326 22.9462 3.09613 23.3717 2.36918 24.0861C0.54491 25.8778 0.54491 28.7844 2.36918 30.5761C3.13242 31.3269 4.09585 31.7585 5.09056 31.8799C4.79152 33.6216 5.32204 35.4734 6.68961 36.8172C8.13601 38.2373 10.1592 38.7378 12.0173 38.3286C11.6744 39.6186 12.0135 41.0475 13.042 42.0598C14.586 43.5762 17.0884 43.5762 18.6324 42.0598C18.979 41.7194 19.243 41.3303 19.4345 40.9161C20.8621 41.4842 22.5575 41.1989 23.7148 40.0628C24.2629 39.5248 24.612 38.8667 24.7709 38.1747C25.6292 38.4275 26.5939 38.2323 27.272 37.5667C27.9377 36.9123 28.1416 35.9851 27.9039 35.1531C28.5007 34.9466 29.0525 34.6125 29.568 34.2109Z" fill="#659C35"/>
<path d="M70.4231 25.0846C70.2654 24.9294 70.099 24.7905 69.9276 24.6591C70.9086 22.6835 70.5682 20.2349 68.8979 18.5945C67.5954 17.3145 65.7911 16.8291 64.1057 17.1331C63.9581 16.206 63.5264 15.3139 62.7995 14.6007C60.9752 12.8077 58.0173 12.8077 56.1918 14.6007C56.073 14.7183 55.9741 14.8484 55.8715 14.9748C55.8302 15.0674 55.7964 15.165 55.7526 15.255C56.7836 15.8243 57.4881 16.8966 57.4881 18.1416C57.4881 19.4078 56.7586 20.4951 55.6988 21.0557C56.2168 21.8614 56.5221 22.8136 56.5221 23.8384C56.5221 26.0004 55.1846 27.856 53.2777 28.6493C53.4967 29.2211 53.6218 29.8379 53.6218 30.4848C53.6218 33.3688 51.242 35.7073 48.3054 35.7073C47.6185 35.7073 46.9654 35.5722 46.3623 35.3382C46.4274 35.4121 46.4649 35.4996 46.535 35.5685C47.083 36.1065 47.7524 36.4506 48.4568 36.607C48.1991 37.4503 48.398 38.3987 49.0762 39.0643C49.7418 39.7187 50.6865 39.9189 51.5336 39.6849C51.8101 40.4607 52.2568 41.1902 52.8886 41.8095C55.1345 44.0154 58.7743 44.0154 61.0202 41.8095C61.6071 41.2327 62.0362 40.562 62.3165 39.8464C63.7441 40.0691 65.2556 39.6449 66.3567 38.5639C67.6029 37.3389 67.997 35.5947 67.5403 34.0407C68.5951 33.8606 69.6073 33.3738 70.4231 32.5718C72.5276 30.5048 72.5276 27.1528 70.4231 25.0846Z" fill="#659C35"/>
<path d="M51.5327 39.685C50.6856 39.9177 49.7422 39.7187 49.0753 39.0644C48.6787 38.6752 48.4459 38.1885 48.3734 37.683C48.3321 37.4015 48.237 37.13 48.0956 36.8885C43.1934 41.9484 39.7688 51.2699 39.7688 51.2699C41.3966 45.4818 41.1401 39.7062 40.6359 35.8537C39.5986 36.3655 38.4287 36.657 37.1875 36.657C35.9789 36.657 34.8415 36.3742 33.8243 35.8875C36.0152 43.6338 34.7639 56.2748 34.7639 56.2748C32.4192 46.8969 27.2642 41.0338 24.8281 38.6852C24.6542 38.8216 24.4977 38.9793 24.3876 39.177C24.2125 39.4948 23.9873 39.7938 23.7132 40.0641C22.5559 41.2014 20.8592 41.4854 19.4328 40.9174C19.2414 41.3315 18.9774 41.7207 18.6308 42.061C18.2179 42.4664 17.7337 42.7554 17.2207 42.9444C23.503 42.9444 30.7088 55.449 31.6384 68.7881C31.7072 69.7691 32.5293 70.5298 33.5127 70.5298H39.7688C40.7322 70.5298 41.5355 69.8079 41.6444 68.8519C42.2187 63.777 43.9916 42.5615 53.8387 42.5615C53.5021 42.3475 53.1818 42.101 52.8865 41.812C52.2571 41.1902 51.8092 40.4607 51.5327 39.685Z" fill="#436B1C"/>
<path d="M30.3639 19.9896C30.2125 19.9896 30.0586 19.9621 29.9084 19.9033C26.7591 18.6721 25.1976 15.1074 26.4288 11.9581C27.66 8.81005 31.2185 7.24854 34.3753 8.47723C35.0184 8.72872 35.3374 9.45443 35.0847 10.0975C34.8332 10.7419 34.11 11.0585 33.4631 10.8082C31.5976 10.0788 29.488 11.0034 28.7598 12.8677C28.0304 14.7333 28.955 16.8428 30.8193 17.571C31.4624 17.8225 31.7815 18.5482 31.5288 19.1914C31.3361 19.6881 30.8631 19.9896 30.3639 19.9896Z" fill="#659C35"/>
<path d="M62.4143 33.0898C61.6585 33.0898 60.9041 32.9484 60.1796 32.6657C58.6544 32.0688 57.452 30.9152 56.7951 29.4138C56.5173 28.7806 56.8064 28.0424 57.4395 27.7659C58.0776 27.4881 58.812 27.7784 59.0873 28.4103C59.4764 29.2986 60.1884 29.9818 61.0917 30.3359C61.9964 30.6887 62.9823 30.6675 63.8707 30.2796C64.759 29.8905 65.4422 29.1785 65.795 28.2752C66.1479 27.3718 66.1291 26.3858 65.7387 25.4975C65.461 24.8644 65.75 24.1261 66.3831 23.8496C67.02 23.5731 67.7544 23.8609 68.031 24.494C68.6879 25.9942 68.7229 27.6608 68.1261 29.1873C67.5292 30.7138 66.3756 31.9162 64.8742 32.5731C64.0846 32.9159 63.2501 33.0898 62.4143 33.0898Z" fill="#88C057"/>
<path d="M45.282 29.9968C43.1411 29.9968 41.0591 28.8757 39.933 26.8826C39.5927 26.2807 39.8042 25.5175 40.406 25.1772C41.0053 24.8368 41.7711 25.0483 42.1101 25.6501C42.5881 26.4947 43.3651 27.1028 44.2998 27.363C45.2319 27.6208 46.2129 27.5019 47.0574 27.0252C47.902 26.5485 48.5101 25.7715 48.7703 24.8356C49.0293 23.9009 48.9092 22.9212 48.4325 22.0779C48.0922 21.4761 48.3036 20.7128 48.9055 20.3725C49.5048 20.0334 50.2705 20.2436 50.6096 20.8455C51.4166 22.2718 51.6193 23.9259 51.1802 25.505C50.741 27.084 49.7138 28.3965 48.2874 29.2023C47.3377 29.7416 46.3029 29.9968 45.282 29.9968Z" fill="#659C35"/>
<path d="M40.89 23.244C39.9941 23.244 39.087 23.0476 38.2274 22.6322C35.1832 21.1583 33.9058 17.4835 35.3784 14.4393C35.68 13.8187 36.4257 13.5572 37.05 13.8574C37.6719 14.159 37.9322 14.9072 37.6319 15.5291C36.7598 17.3308 37.5155 19.5067 39.3185 20.3788C41.1202 21.2484 43.2961 20.4951 44.1682 18.6921C44.4685 18.0715 45.2142 17.8088 45.8398 18.1103C46.4617 18.4119 46.7219 19.1601 46.4216 19.7819C45.3618 21.969 43.1685 23.244 40.89 23.244Z" fill="#659C35"/>
<path d="M31.3789 30.2671C30.5444 30.2671 29.7111 30.0944 28.9241 29.7503C25.8261 28.3953 24.4072 24.773 25.761 21.6738C26.0375 21.0432 26.7695 20.7516 27.4076 21.0281C28.0407 21.3047 28.3297 22.0429 28.0532 22.676C27.2524 24.5103 28.092 26.6561 29.9263 27.4569C30.8171 27.846 31.8031 27.8648 32.7052 27.5107C33.6086 27.1566 34.3193 26.4734 34.7084 25.5838C34.9849 24.9532 35.7181 24.6629 36.355 24.9382C36.9881 25.2147 37.2772 25.9529 37.0006 26.586C36.3462 28.0875 35.1451 29.2436 33.6186 29.8404C32.8929 30.1257 32.1359 30.2671 31.3789 30.2671Z" fill="#659C35"/>
<path d="M45.298 16.6139C45.1003 16.6139 44.9013 16.6051 44.7012 16.5863C43.0696 16.4299 41.5982 15.6479 40.5559 14.3842C40.1155 13.8512 40.1918 13.0629 40.7248 12.6225C41.2603 12.1808 42.0473 12.2596 42.4865 12.7914C43.1034 13.5396 43.9742 14.0026 44.9401 14.0952C45.9186 14.194 46.8507 13.8975 47.5977 13.2819C49.1417 12.0081 49.3619 9.71468 48.0882 8.17068C47.6478 7.63767 47.7241 6.8494 48.2571 6.40898C48.7926 5.9673 49.5796 6.04612 50.0188 6.57789C52.1709 9.18541 51.7993 13.0592 49.1918 15.2112C48.0807 16.1259 46.7169 16.6139 45.298 16.6139Z" fill="#659C35"/>
<path d="M13.3647 31.7122C12.5977 31.7122 11.8195 31.5683 11.0662 31.2631C7.93319 29.9918 6.41797 26.4083 7.6892 23.2741C7.9482 22.6334 8.67766 22.3269 9.31953 22.5846C9.96015 22.8449 10.2679 23.5744 10.0089 24.215C9.25572 26.0693 10.1528 28.1913 12.0084 28.9446C13.8677 29.7003 15.9872 28.8007 16.738 26.9451C16.9982 26.3032 17.7302 25.9967 18.3683 26.2557C19.0089 26.516 19.318 27.2454 19.0577 27.886C18.0893 30.2658 15.7895 31.7122 13.3647 31.7122Z" fill="#88C057"/>
</g>
<defs>
<clipPath id="clip0">
<rect width="71" height="71" fill="white" transform="translate(1 1)"/>
</clipPath>
</defs>
</svg>
