<svg width="70" height="70" viewBox="0 0 70 70" fill="none" xmlns="http://www.w3.org/2000/svg">
<g clip-path="url(#clip0)">
<path d="M1.33896 54.6463C1.33896 54.6463 5.81285 64.3711 17.3643 68.1916C19.9314 69.0403 22.6349 69.2469 25.3271 69.4871C36.3797 70.4749 62.8633 68.1228 68.9784 42.8237C70.8992 34.8763 70.0463 26.5075 66.9705 18.9325C62.5415 8.02461 52.6172 -5.94785 32.0801 3.41021C20.3783 8.74262 21.2663 17.8534 23.7716 24.1876C26.8024 31.8539 20.6199 39.7577 12.4464 38.6828C2.34502 37.3536 -2.56445 43.4237 1.33896 54.6463Z" fill="#994530"/>
<path d="M6.59001 52.2422C7.15486 53.3452 10.8868 60.0434 19.392 62.8564C21.2678 63.4761 23.4149 63.6671 25.6897 63.8681L26.086 63.9032C27.2354 64.0058 28.4719 64.0578 29.7632 64.0578C55.3081 64.0578 61.8756 48.2952 63.514 41.5183C65.1074 34.9241 64.506 27.8845 61.7787 21.161C57.6786 11.0639 51.7869 5.94223 44.2696 5.94223C41.1643 5.94223 37.6894 6.80638 33.9434 8.51359C29.7393 10.4302 24.5628 14.023 28.1403 23.0706C29.9444 27.6372 29.4217 32.5495 26.7028 36.547C23.6537 41.0308 18.2693 43.4335 12.7992 42.7155C12.1065 42.6241 11.4419 42.5764 10.8264 42.5764C9.31312 42.5764 7.31083 42.8546 6.368 44.1824C5.29028 45.6999 5.37177 48.6296 6.59001 52.2422Z" fill="#D75A4A"/>
<path d="M29.7659 65.4629C28.4338 65.4629 27.1552 65.4095 25.9636 65.3027L25.566 65.2676C23.2138 65.061 20.9895 64.8643 18.9535 64.1898C9.99449 61.2279 6.04331 54.2515 5.34075 52.8829L5.25926 52.6904C3.87662 48.5917 3.86398 45.2812 5.22272 43.3675C6.50419 41.5619 9.2835 40.8284 12.9846 41.3216C17.9545 41.9764 22.7628 39.8406 25.5407 35.7559C27.994 32.1518 28.4661 27.7145 26.8348 23.5862C22.3539 12.254 30.6384 8.47565 33.3615 7.23352C46.9631 1.04118 56.9815 5.61062 63.0825 20.6313C65.9223 27.6302 66.5447 34.9663 64.8811 41.8471C63.164 48.9486 56.3071 65.4629 29.7659 65.4629ZM7.88682 51.6899C8.45027 52.755 12.0122 58.9333 19.8345 61.5215C21.5614 62.092 23.6269 62.2747 25.8147 62.4672L26.2137 62.5023C27.321 62.6007 28.5167 62.6512 29.7645 62.6512C54.3104 62.6512 60.5899 47.6404 62.1495 41.1867C63.6727 34.882 63.0938 28.1388 60.4774 21.6879C56.612 12.1725 51.1587 7.34734 44.2695 7.34734C41.3651 7.34734 38.0869 8.16933 34.5264 9.79224C30.2829 11.7257 26.3627 14.7551 29.4469 22.5549C31.4253 27.5613 30.8492 32.9499 27.8647 37.3381C24.4868 42.3038 18.643 44.9061 12.6164 44.1079C10.0971 43.7763 8.12429 44.1346 7.51306 44.996C6.90184 45.8573 6.68264 48.0647 7.88682 51.6899Z" fill="#C64940"/>
<path d="M45.6029 23.5764C48.707 23.5764 51.2233 21.0601 51.2233 17.956C51.2233 14.8519 48.707 12.3355 45.6029 12.3355C42.4988 12.3355 39.9824 14.8519 39.9824 17.956C39.9824 21.0601 42.4988 23.5764 45.6029 23.5764Z" fill="#E6E6E6"/>
<path d="M45.6027 24.9815C41.7288 24.9815 38.5771 21.8299 38.5771 17.956C38.5771 14.0821 41.7288 10.9304 45.6027 10.9304C49.4766 10.9304 52.6283 14.0821 52.6283 17.956C52.6283 21.8299 49.4766 24.9815 45.6027 24.9815ZM45.6027 13.7406C43.2787 13.7406 41.3874 15.6319 41.3874 17.956C41.3874 20.28 43.2787 22.1713 45.6027 22.1713C47.9268 22.1713 49.8181 20.28 49.8181 17.956C49.8181 15.6319 47.9268 13.7406 45.6027 13.7406Z" fill="#7A3726"/>
<path d="M35.9947 64.1912L33.2673 63.5182C33.8786 61.0438 31.7737 58.9994 28.4253 56.6907C24.3856 53.903 21.6569 49.5008 20.9403 44.6138C20.6789 42.8349 20.3431 41.4031 20.3389 41.389L23.0395 40.619C23.0535 40.6584 24.5711 44.9805 28.629 46.6807C31.5714 47.913 35.1867 47.521 39.3754 45.5117C55.6438 37.7076 63.4056 41.7937 63.7288 41.9708L62.3701 44.4325C62.3139 44.403 55.3866 40.9478 40.5908 48.0437C35.6307 50.4239 31.2299 50.8314 27.5064 49.2563C26.3809 48.78 25.4127 48.1617 24.5865 47.4788C25.6671 50.2525 27.5513 52.6707 30.0201 54.3737C32.5268 56.1076 37.196 59.3267 35.9947 64.1912Z" fill="#C64940"/>
<path d="M38.0426 38.7615C30.4972 38.7615 27.3567 33.571 27.3174 33.5064L29.744 32.0872L28.5314 32.7968L29.7384 32.0788C29.8901 32.3303 33.5519 38.1699 43.4214 35.0365C45.5853 33.9209 60.3362 26.603 65.3679 31.8202L63.3459 33.7719C60.5652 30.8886 50.3781 34.5813 44.6129 37.5854L44.3966 37.6753C42.0022 38.4495 39.8903 38.7615 38.0426 38.7615Z" fill="#C64940"/>
</g>
<defs>
<clipPath id="clip0">
<rect width="70" height="70" fill="white"/>
</clipPath>
</defs>
</svg>
