<svg width="70" height="70" viewBox="0 0 70 70" fill="none" xmlns="http://www.w3.org/2000/svg">
<path d="M30.3423 68.2374C30.02 68.2374 29.6977 68.114 29.4522 67.8685C28.9599 67.3763 28.9599 66.5806 29.4522 66.0883L34.74 60.8005C35.2322 60.3083 36.0279 60.3083 36.5202 60.8005C37.0125 61.2928 37.0125 62.0885 36.5202 62.5808L31.2324 67.8685C30.9869 68.114 30.6646 68.2374 30.3423 68.2374Z" fill="#A5A5A5"/>
<path d="M35.6301 70C34.9339 70 34.3711 69.436 34.3711 68.741V61.6906C34.3711 60.9957 34.9339 60.4317 35.6301 60.4317C36.3263 60.4317 36.8891 60.9957 36.8891 61.6906V68.741C36.8891 69.436 36.3263 70 35.6301 70Z" fill="#A5A5A5"/>
<path d="M40.9172 68.2374C40.5949 68.2374 40.2726 68.114 40.0271 67.8685L34.7393 62.5808C34.2471 62.0885 34.2471 61.2928 34.7393 60.8005C35.2316 60.3083 36.0273 60.3083 36.5195 60.8005L41.8073 66.0883C42.2996 66.5806 42.2996 67.3763 41.8073 67.8685C41.5618 68.114 41.2395 68.2374 40.9172 68.2374Z" fill="#A5A5A5"/>
<path d="M44.4441 64.7122C44.3622 64.7122 44.2791 64.7047 44.196 64.6871L35.3831 62.9245C34.702 62.7885 34.2588 62.125 34.396 61.4426C34.5307 60.7615 35.1867 60.3171 35.8779 60.4556L44.6908 62.2182C45.3719 62.3541 45.8151 63.0176 45.6779 63.7C45.5583 64.298 45.032 64.7122 44.4441 64.7122Z" fill="#A5A5A5"/>
<path d="M26.8151 64.4189C26.2108 64.4189 25.677 63.982 25.575 63.3676C25.4604 62.6815 25.9238 62.0331 26.6099 61.9185L35.4229 60.4493C36.1115 60.3334 36.7586 60.798 36.8707 61.4842C36.9853 62.1703 36.522 62.8187 35.8358 62.9333L27.0229 64.4025C26.9536 64.4126 26.8844 64.4189 26.8151 64.4189Z" fill="#A5A5A5"/>
<path d="M36.8888 7.64964V0L31.8529 2.51799V7.75162C18.0908 9.34802 7.46995 21.2505 7.94711 35.5489C8.4079 49.3437 19.487 60.7766 33.2629 61.6365C49.0003 62.6185 62.0687 50.1469 62.0687 34.6223C62.0687 20.3101 50.953 8.62284 36.8888 7.64964Z" fill="#E9D3EA"/>
<path d="M35.6295 63.2052C35.4998 63.2052 35.3689 63.1851 35.2379 63.1423C27.5493 60.6331 20.4108 53.696 17.0556 45.466C13.8879 37.7018 14.248 29.3962 18.0665 22.079C18.3888 21.4633 19.1442 21.2228 19.7662 21.5451C20.3818 21.8674 20.621 22.6279 20.3 23.2435C15.852 31.7682 17.3489 39.516 19.3872 44.5155C22.4755 52.0883 29.0047 58.4601 36.021 60.7489C36.6807 60.9642 37.0433 61.6755 36.828 62.3365C36.6543 62.8678 36.1595 63.2052 35.6295 63.2052Z" fill="#9777A8"/>
<path d="M35.6296 63.2052C35.0996 63.2052 34.6061 62.8678 34.4323 62.3365C34.2171 61.6755 34.5784 60.9655 35.2394 60.7489C42.2557 58.4601 48.7849 52.0883 51.8732 44.5155C53.9115 39.516 55.4097 31.7682 50.9604 23.2435C50.6394 22.6279 50.8786 21.8674 51.4942 21.5451C52.1136 21.2228 52.8728 21.4633 53.1938 22.079C57.0124 29.3962 57.3712 37.7018 54.2048 45.466C50.8496 53.6948 43.7111 60.6331 36.0224 63.1423C35.8902 63.1851 35.7593 63.2052 35.6296 63.2052Z" fill="#9777A8"/>
<path d="M36.2572 63.2052C36.0444 63.2052 35.8291 63.1523 35.6314 63.0378C27.4379 58.3304 21.182 36.0853 26.0115 19.7863C26.2079 19.1203 26.9091 18.7414 27.5764 18.9365C28.2424 19.1342 28.6226 19.8342 28.4262 20.5014C23.6395 36.6556 30.3122 57.0777 36.8854 60.8534C37.4885 61.1996 37.6975 61.9689 37.35 62.5719C37.1183 62.9786 36.694 63.2052 36.2572 63.2052Z" fill="#9777A8"/>
<path d="M35.0032 63.2052C34.5663 63.2052 34.142 62.9786 33.9104 62.5732C33.5642 61.9702 33.7732 61.2009 34.3749 60.8547C40.9482 57.079 47.6208 36.6568 42.8341 20.5027C42.6377 19.8354 43.0179 19.1354 43.6839 18.9378C44.3512 18.7414 45.0525 19.1216 45.2489 19.7876C50.0784 36.0865 43.8224 58.3317 35.6289 63.039C35.4312 63.1511 35.216 63.2052 35.0032 63.2052Z" fill="#9777A8"/>
<path d="M35.6301 62.9496C34.9339 62.9496 34.3711 62.3856 34.3711 61.6906V15.1079C34.3711 14.413 34.9339 13.8489 35.6301 13.8489C36.3263 13.8489 36.8891 14.413 36.8891 15.1079V61.6906C36.8891 62.3856 36.3263 62.9496 35.6301 62.9496Z" fill="#9777A8"/>
</svg>
