<svg width="80" height="80" viewBox="0 0 80 80" fill="none" xmlns="http://www.w3.org/2000/svg">
<g clip-path="url(#clip0)">
<path d="M46.6846 34.808C46.6846 34.808 59.0266 27.492 66.8626 37.83C66.8626 37.83 68.8946 40.18 67.3326 42.43C65.7956 44.642 62.3646 44.172 60.6566 41.827C59.1156 39.712 55.4026 37.027 46.6846 34.808Z" fill="#88C057"/>
<path d="M46.6843 34.808C46.6843 34.808 54.1903 22.656 44.5393 15.507C44.5393 15.507 41.3543 12.644 38.4773 13.663C35.8013 14.61 35.7313 18.341 38.1933 19.752C40.8913 21.299 44.5873 25.163 46.6843 34.808Z" fill="#88C057"/>
<path d="M66.6033 38.466C66.6033 38.466 66.6703 38.552 66.7583 38.671C67.0153 38.441 67.2643 38.193 67.4903 37.903C69.5743 35.233 67.9043 33.167 67.9043 33.167C61.7183 23.861 47.3203 33.974 47.3203 33.974C48.0133 34.022 48.6613 34.084 49.2883 34.15C53.4053 32.648 61.1093 31.218 66.6033 38.466Z" fill="#88C057"/>
<path d="M44.541 15.507C51.986 21.021 49.222 29.509 47.569 33.103C47.572 33.184 47.578 33.257 47.581 33.338C47.581 33.338 57.856 19.102 49.136 13.502C49.136 13.502 46.357 11.125 43.137 12.762C42.584 13.043 42.107 13.407 41.709 13.818C43.32 14.412 44.541 15.507 44.541 15.507Z" fill="#A4E869"/>
<path d="M62.4585 18.131C58.8115 15.768 54.1825 19.336 54.1825 19.336C53.4145 20.256 52.7175 21.246 52.0745 22.263C51.4365 26.912 48.4075 31.937 46.9015 34.197C46.8125 34.511 46.7375 34.786 46.6855 34.984C48.4305 33.812 53.5135 30.641 58.5095 29.82C59.7495 28.998 60.9315 28.095 61.9605 27.115C67.4755 21.864 62.4585 18.131 62.4585 18.131Z" fill="#659C35"/>
<path d="M46.6846 34.808C46.6846 34.808 59.0266 27.492 66.8626 37.83C66.8626 37.83 68.8946 40.18 67.3326 42.43C65.7956 44.642 62.3646 44.172 60.6566 41.827C59.1156 39.712 55.4026 37.027 46.6846 34.808Z" fill="#A4E869"/>
<path d="M47.3753 33.701C47.0943 34.248 46.9033 34.558 46.9033 34.558C46.9033 34.558 47.3713 34.282 48.1753 33.915C47.9143 33.843 47.6513 33.772 47.3753 33.701Z" fill="#F2681C"/>
<path d="M53.8086 40.277C54.2296 39.105 54.2036 37.943 53.9406 36.848C52.0616 36.059 49.7546 35.283 46.9036 34.558C46.2126 31.381 45.3476 28.842 44.4026 26.796C43.0996 26.343 41.6746 26.182 40.2326 26.7C35.7076 28.326 15.8096 56.955 12.0886 66.937C11.7386 67.876 12.4756 68.612 13.4136 68.262C23.3956 64.541 52.1826 44.801 53.8086 40.277Z" fill="#ED8F20"/>
<path d="M20.2356 58.857C19.5616 58.535 18.9066 58.142 18.2886 57.689C17.8426 57.361 17.2176 57.459 16.8916 57.904C16.5656 58.349 16.6616 58.975 17.1066 59.301C17.8246 59.828 18.5876 60.286 19.3736 60.661C19.5126 60.727 19.6596 60.759 19.8046 60.759C20.1776 60.759 20.5356 60.549 20.7076 60.19C20.9446 59.692 20.7336 59.094 20.2356 58.857Z" fill="#DD7017"/>
<path d="M51.161 39.824C49.115 39.044 47.216 37.642 45.519 35.657C45.16 35.237 44.529 35.188 44.109 35.547C43.689 35.906 43.64 36.537 43.999 36.957C45.916 39.199 48.086 40.793 50.449 41.694C50.566 41.738 50.686 41.76 50.805 41.76C51.208 41.76 51.587 41.514 51.74 41.115C51.936 40.599 51.677 40.021 51.161 39.824Z" fill="#DD7017"/>
<path d="M34.7211 31.948C35.1101 32.049 35.4221 32.376 35.4691 32.802C35.6481 34.434 36.4911 36.549 37.9741 37.594C38.4251 37.912 38.5331 38.536 38.2141 38.988C38.0201 39.264 37.7101 39.411 37.3961 39.411C37.1971 39.411 36.9961 39.352 36.8201 39.228C34.8191 37.817 33.8241 35.281 33.5361 33.381" fill="#DD7017"/>
<path d="M36.8201 39.228C36.9951 39.352 37.1961 39.411 37.3961 39.411C37.7101 39.411 38.0201 39.264 38.2141 38.988C38.5321 38.536 38.4251 37.913 37.9741 37.594C36.4921 36.548 35.6481 34.433 35.4691 32.802C35.4221 32.377 35.1101 32.049 34.7211 31.948C34.3361 32.405 33.9421 32.879 33.5361 33.38C33.8241 35.281 34.8191 37.817 36.8201 39.228Z" fill="#DD7017"/>
<path d="M42.3478 50.578C40.4578 50.272 37.9788 49.276 36.5898 47.307C36.2718 46.856 36.3798 46.232 36.8308 45.913C37.2808 45.595 37.9058 45.703 38.2248 46.154C39.2698 47.635 41.3848 48.48 43.0168 48.659C43.4548 48.707 43.7828 49.034 43.8728 49.441" fill="#DD7017"/>
<path d="M43.0175 48.659C41.3845 48.48 39.2695 47.636 38.2255 46.154C37.9075 45.703 37.2815 45.594 36.8315 45.913C36.3795 46.231 36.2715 46.855 36.5905 47.307C37.9795 49.276 40.4585 50.272 42.3485 50.578C42.8675 50.195 43.3765 49.817 43.8735 49.442C43.7835 49.034 43.4545 48.707 43.0175 48.659Z" fill="#DD7017"/>
<path d="M26.7551 42.41C27.1541 42.504 27.4751 42.834 27.5231 43.266C27.6351 44.291 28.1581 45.615 29.0721 46.261C29.5231 46.579 29.6311 47.203 29.3121 47.655C29.1171 47.931 28.8081 48.078 28.4941 48.078C28.2951 48.078 28.0941 48.019 27.9181 47.895C26.5901 46.958 25.8781 45.335 25.6191 44.03" fill="#DD7017"/>
<path d="M27.9191 47.895C28.0941 48.019 28.2951 48.078 28.4951 48.078C28.8091 48.078 29.1181 47.931 29.3131 47.655C29.6311 47.204 29.5241 46.58 29.0731 46.261C28.1581 45.615 27.6361 44.292 27.5241 43.266C27.4771 42.833 27.1561 42.503 26.7561 42.41C26.3771 42.945 25.9991 43.485 25.6201 44.03C25.8791 45.335 26.5911 46.958 27.9191 47.895Z" fill="#DD7017"/>
<path d="M30.0236 59.047C28.6666 58.87 26.7796 58.159 25.7386 56.682C25.4206 56.23 25.5276 55.607 25.9786 55.288C26.4306 54.968 27.0546 55.078 27.3726 55.528C28.0186 56.443 29.3416 56.965 30.3666 57.077C30.9156 57.137 31.3116 57.631 31.2516 58.18C31.2486 58.211 31.2316 58.237 31.2256 58.267" fill="#DD7017"/>
<path d="M30.367 57.078C29.342 56.966 28.018 56.443 27.373 55.529C27.055 55.078 26.432 54.969 25.979 55.289C25.528 55.607 25.42 56.231 25.739 56.683C26.781 58.16 28.667 58.871 30.024 59.048C30.424 58.791 30.825 58.53 31.226 58.269C31.232 58.239 31.249 58.213 31.252 58.182C31.313 57.633 30.916 57.138 30.367 57.078Z" fill="#DD7017"/>
</g>
<defs>
<clipPath id="clip0">
<rect width="56.538" height="56.538" fill="white" transform="translate(12 12)"/>
</clipPath>
</defs>
</svg>
