<svg width="63" height="63" viewBox="0 0 63 63" fill="none" xmlns="http://www.w3.org/2000/svg">
<g clip-path="url(#clip0)">
<g clip-path="url(#clip1)">
<path d="M41.1822 51.9398C36.6828 47.0719 36.4967 37.0558 36.6705 32.4878C36.7195 31.194 35.6889 30.1218 34.3939 30.1218H28.0914C26.7964 30.1218 25.7658 31.194 25.8147 32.4878C25.9885 37.057 25.8025 47.0731 21.303 51.9398C21.303 51.9398 16.3739 56.984 22.2345 60.3831C22.5687 60.5764 22.9603 60.667 23.3459 60.667H28.0914H34.3939H39.1394C39.5249 60.667 39.9166 60.5764 40.2508 60.3831C46.1126 56.984 41.1822 51.9398 41.1822 51.9398Z" fill="#E6E6E6"/>
<path d="M47.728 34.0239C36.6592 32.0985 25.342 32.0985 14.2732 34.0239C5.87284 34.0239 -1 27.1511 -1 18.7519C-0.151759 12.3271 4.27305 6.93405 14.2732 3.47866C25.2416 0.616916 36.7596 0.616916 47.728 3.47866C58.6976 6.44812 62.5765 12.0247 63.0012 18.7519C63 27.1511 56.1272 34.0239 47.728 34.0239Z" fill="#D2D5D7"/>
<path d="M21.1419 9.66849C20.5434 9.66849 20.0195 9.22907 19.9314 8.61829C19.8359 7.94998 20.301 7.3294 20.9706 7.2327C23.5128 6.86795 26.2142 6.69291 29.0148 6.72596C29.6917 6.73331 30.2339 7.28656 30.2265 7.96222C30.2192 8.6342 29.6733 9.17399 29.0025 9.17399C28.9989 9.17399 28.994 9.17399 28.9903 9.17399C26.3122 9.14094 23.7368 9.30985 21.3157 9.65747C21.2582 9.66482 21.1994 9.66849 21.1419 9.66849Z" fill="#D2D5D7"/>
<path d="M5.92459 22.5402C5.27219 22.5402 4.72995 22.0249 4.70302 21.3664C4.44721 15.1876 8.81694 10.256 16.3887 8.17765C17.0374 7.9965 17.7143 8.37961 17.893 9.03324C18.0717 9.68441 17.6886 10.3588 17.0374 10.5376C13.9664 11.3809 6.85484 14.1153 7.14983 21.2673C7.17676 21.9429 6.65288 22.5133 5.97722 22.5402C5.96009 22.5402 5.94295 22.5402 5.92459 22.5402Z" fill="#D2D5D7"/>
</g>
</g>
<defs>
<clipPath id="clip0">
<rect width="63" height="63" fill="white"/>
</clipPath>
<clipPath id="clip1">
<rect width="64" height="64" fill="white" transform="translate(-1 -1)"/>
</clipPath>
</defs>
</svg>
