<svg width="72" height="72" viewBox="0 0 72 72" fill="none" xmlns="http://www.w3.org/2000/svg">
<path d="M51.5 12.5C50.999 12.5 50.508 12.533 50.022 12.584C48.876 10.735 46.835 9.5 44.5 9.5C42.998 9.5 41.619 10.014 40.519 10.87C40.377 10.697 40.225 10.533 40.065 10.376C40.018 10.33 39.967 10.288 39.918 10.243C39.804 10.137 39.688 10.032 39.567 9.935C39.502 9.883 39.434 9.835 39.367 9.786C39.255 9.703 39.142 9.621 39.024 9.545C38.949 9.496 38.871 9.451 38.794 9.405C38.678 9.337 38.561 9.272 38.441 9.21C38.358 9.168 38.275 9.128 38.191 9.089C38.068 9.033 37.944 8.982 37.817 8.934C37.731 8.901 37.645 8.868 37.557 8.839C37.425 8.795 37.29 8.757 37.154 8.722C37.068 8.699 36.982 8.675 36.895 8.655C36.744 8.622 36.59 8.598 36.436 8.576C36.36 8.565 36.285 8.55 36.209 8.541C35.976 8.515 35.74 8.5 35.5 8.5C35.26 8.5 35.024 8.515 34.791 8.54C34.714 8.548 34.64 8.564 34.564 8.575C34.409 8.597 34.256 8.621 34.105 8.654C34.017 8.673 33.932 8.698 33.846 8.721C33.71 8.757 33.575 8.794 33.443 8.838C33.355 8.867 33.269 8.9 33.183 8.933C33.057 8.981 32.932 9.032 32.809 9.088C32.725 9.127 32.641 9.167 32.559 9.209C32.439 9.27 32.322 9.335 32.206 9.404C32.128 9.45 32.051 9.495 31.976 9.544C31.858 9.62 31.745 9.702 31.633 9.785C31.566 9.835 31.498 9.882 31.433 9.934C31.311 10.032 31.196 10.136 31.082 10.242C31.033 10.287 30.982 10.329 30.935 10.375C30.776 10.532 30.624 10.696 30.481 10.869C29.381 10.014 28.002 9.5 26.5 9.5C24.165 9.5 22.124 10.735 20.978 12.584C20.492 12.533 20.001 12.5 19.5 12.5C12.596 12.5 7 17.425 7 23.5C7 27.116 8.991 30.314 12.052 32.319C12.458 35.799 15.412 38.5 19 38.5C20.193 38.5 21.314 38.2 22.297 37.674C23.541 38.805 25.187 39.5 27 39.5C28.451 39.5 29.794 39.052 30.91 38.296C32.187 39.65 33.992 40.5 36 40.5C37.815 40.5 39.464 39.803 40.708 38.67C41.69 39.196 42.808 39.5 44 39.5C45.813 39.5 47.459 38.805 48.703 37.674C49.686 38.2 50.807 38.5 52 38.5C55.588 38.5 58.542 35.799 58.948 32.319C62.009 30.314 64 27.116 64 23.5C64 17.425 58.404 12.5 51.5 12.5Z" fill="#F9EA80"/>
<path d="M43.9996 39.5L37.9996 50.5V40.206C37.3656 40.396 36.6956 40.5 35.9996 40.5C35.4096 40.5 34.8396 40.419 34.2926 40.28L33.9996 54.5L28.6516 39.282C28.1206 39.412 27.5716 39.5 26.9996 39.5C25.4786 39.5 24.0786 39.006 22.9326 38.182L29.4776 57C29.7516 57.787 29.9146 58.604 30.1056 59.415C30.5216 61.178 32.1136 62.5 33.9996 62.5H37.9996C39.8856 62.5 41.4776 61.178 41.8936 59.414C42.1016 58.532 42.2616 57.639 42.5256 56.771L48.2146 38.079C47.0426 38.969 45.5846 39.5 43.9996 39.5Z" fill="#436B1C"/>
<path d="M16.9913 27.744C16.0873 27.744 15.1693 27.539 14.3063 27.106C11.3513 25.621 10.1553 22.007 11.6393 19.051C11.8873 18.558 12.4853 18.358 12.9823 18.606C13.4753 18.854 13.6743 19.455 13.4263 19.948C12.4363 21.919 13.2343 24.328 15.2043 25.318C17.1763 26.309 19.5833 25.51 20.5743 23.54C20.8213 23.047 21.4213 22.847 21.9173 23.096C22.4103 23.344 22.6093 23.945 22.3613 24.439C21.3103 26.533 19.1893 27.744 16.9913 27.744Z" fill="#D7CC56"/>
<path d="M26.9339 35.278C25.7389 35.278 24.5729 34.921 23.5649 34.232C22.2409 33.329 21.3479 31.964 21.0509 30.389C20.9479 29.846 21.3049 29.323 21.8479 29.221C22.3909 29.121 22.9139 29.476 23.0159 30.018C23.2139 31.068 23.8089 31.978 24.6919 32.58C25.5739 33.183 26.6389 33.404 27.6879 33.207C29.8549 32.798 31.2859 30.702 30.8769 28.534C30.7739 27.991 31.1309 27.468 31.6739 27.366C32.2169 27.268 32.7399 27.621 32.8419 28.163C33.4549 31.414 31.3099 34.559 28.0589 35.172C27.6839 35.243 27.3069 35.278 26.9339 35.278Z" fill="#D7CC56"/>
<path d="M43.5894 24.499C41.2774 24.499 39.0694 23.156 38.0844 20.907C37.8624 20.401 38.0934 19.811 38.5994 19.59C39.1084 19.37 39.6964 19.599 39.9164 20.105C40.8024 22.125 43.1644 23.049 45.1854 22.164C46.1644 21.735 46.9164 20.951 47.3064 19.956C47.6954 18.961 47.6724 17.873 47.2434 16.895C47.0214 16.389 47.2524 15.799 47.7584 15.578C48.2684 15.356 48.8554 15.588 49.0754 16.093C49.7194 17.561 49.7514 19.192 49.1684 20.685C48.5854 22.178 47.4554 23.354 45.9874 23.997C45.2064 24.337 44.3924 24.499 43.5894 24.499Z" fill="#D7CC56"/>
<path d="M43.9923 35.704C43.1913 35.704 42.3773 35.543 41.5973 35.202C40.1283 34.56 38.9983 33.385 38.4133 31.892C37.8293 30.399 37.8603 28.769 38.5033 27.3C38.7243 26.794 39.3143 26.562 39.8193 26.785C40.3253 27.006 40.5563 27.596 40.3353 28.102C39.9073 29.081 39.8863 30.167 40.2753 31.163C40.6653 32.158 41.4193 32.941 42.3973 33.37C44.4203 34.252 46.7823 33.328 47.6663 31.307C47.8863 30.801 48.4773 30.568 48.9823 30.792C49.4883 31.013 49.7193 31.603 49.4983 32.109C48.5153 34.358 46.3063 35.704 43.9923 35.704Z" fill="#D7CC56"/>
<path d="M29.0084 24.769C27.1514 24.769 25.3194 23.912 24.1474 22.299C23.8224 21.852 23.9214 21.227 24.3684 20.902C24.8154 20.578 25.4404 20.676 25.7644 21.123C27.0624 22.907 29.5674 23.303 31.3524 22.007C32.2164 21.379 32.7844 20.452 32.9514 19.397C33.1184 18.341 32.8644 17.284 32.2364 16.42C31.9114 15.973 32.0094 15.348 32.4574 15.023C32.9044 14.699 33.5294 14.797 33.8534 15.244C34.7954 16.54 35.1774 18.126 34.9264 19.709C34.6764 21.292 33.8244 22.683 32.5284 23.625C31.4654 24.397 30.2314 24.769 29.0084 24.769Z" fill="#D7CC56"/>
<path d="M54.0044 28.78C52.3274 28.78 50.6594 28.083 49.4754 26.723C49.1124 26.306 49.1564 25.675 49.5734 25.312C49.9854 24.95 50.6204 24.992 50.9834 25.409C52.4334 27.073 54.9644 27.247 56.6284 25.799C57.4344 25.097 57.9184 24.124 57.9914 23.058C58.0654 21.992 57.7194 20.961 57.0174 20.156C56.6544 19.739 56.6984 19.108 57.1154 18.745C57.5304 18.382 58.1624 18.424 58.5254 18.842C59.5784 20.05 60.0964 21.597 59.9864 23.196C59.8764 24.795 59.1494 26.255 57.9404 27.308C56.8064 28.296 55.4014 28.78 54.0044 28.78Z" fill="#D7CC56"/>
</svg>
