<svg width="78" height="78" viewBox="0 0 78 78" fill="none" xmlns="http://www.w3.org/2000/svg">
<g clip-path="url(#clip0)">
<path d="M77.0481 8.452C76.2776 7.29337 75.2164 6.54615 74.0578 6.16673C73.3324 5.92977 72.7843 5.38172 72.5474 4.6563C72.1679 3.49622 71.4207 2.435 70.2621 1.66452C68.1978 0.292199 65.3717 0.414312 63.4383 1.96544C61.8988 3.19966 61.1777 4.99793 61.2635 6.76858C61.3594 8.76746 60.7808 10.7402 59.3649 12.1547L47.1085 24.4111C47.0184 24.5012 46.9457 24.6015 46.8628 24.6975L45.5879 28.9482C45.6635 29.4221 45.8016 29.8887 46.0269 30.3321C46.0429 30.3641 46.0676 30.3859 46.0851 30.4179L49.4039 29.3116V33.007C51.0757 33.414 52.9118 32.9997 54.2114 31.7001L66.5623 19.3492C67.9783 17.9332 69.9495 17.3547 71.9499 17.4506C73.7205 17.5349 75.5202 16.8153 76.753 15.2744C78.2983 13.3409 78.4204 10.5163 77.0481 8.452Z" fill="#E6E6E6"/>
<path d="M68.8228 8.54795L67.7412 7.57686C68.99 6.18273 70.7781 5.36427 72.6446 5.32648L72.6737 6.78021C71.2084 6.80928 69.8055 7.45329 68.8228 8.54795Z" fill="#BFBFBF"/>
<path d="M49.3989 35.128V29.3131L45.0377 30.7668L47.8027 21.5501C45.7966 21.5807 43.7991 22.3381 42.2756 23.8616C36.2688 29.8684 28.3154 33.3603 19.8722 34.2965C15.3074 34.8024 10.8779 36.8143 7.39042 40.3367C-0.314359 48.1171 -0.596382 60.9216 6.77985 69.013C14.8437 77.8605 28.5626 78.0989 36.9317 69.7297C40.0558 66.6057 41.9776 62.7387 42.7016 58.6974C44.2265 50.1828 48.6255 42.4461 54.7428 36.3288C55.115 35.9566 55.4261 35.5496 55.7081 35.1295H49.3989V35.128Z" fill="#EEAF4B"/>
<path d="M22.2157 77.2862C22.0369 77.2862 21.8596 77.2848 21.6808 77.2804C15.5329 77.138 9.86047 74.5489 5.70716 69.9914C-2.14881 61.3722 -1.85661 47.6097 6.35843 39.3118C9.93171 35.7037 14.6752 33.4068 19.7153 32.8485C28.1906 31.9094 35.6366 28.4466 41.2495 22.8309C42.9779 21.1038 45.2981 20.1327 47.7825 20.095L49.7669 20.0644L47.2359 28.5004L50.8528 27.2938V33.6728H58.434L56.9178 35.9363C56.5384 36.5018 56.1749 36.951 55.7722 37.3551C49.5808 43.5466 45.5569 51.0144 44.1337 58.9518C43.3298 63.4409 41.1957 67.523 37.9611 70.7561C33.7395 74.9792 28.1659 77.2862 22.2157 77.2862ZM45.74 23.3658C44.8271 23.6828 43.9956 24.1974 43.3036 24.8879C37.2183 30.9747 29.1719 34.7268 20.0337 35.74C15.5896 36.2328 11.5759 38.1765 8.42419 41.3587C1.27909 48.5736 1.02469 60.5407 7.85578 68.0332C11.4683 71.999 16.4037 74.2494 21.7476 74.373C27.1366 74.5052 32.1244 72.4831 35.9055 68.7019C38.7185 65.889 40.5735 62.3419 41.2713 58.4386C42.7017 50.4591 46.5658 42.936 52.4795 36.5817H47.9453V31.3308L42.8398 33.0317L45.74 23.3658Z" fill="#EEAF4B"/>
<path d="M36.8041 60.5785C36.5948 60.5785 36.384 60.5334 36.1819 60.4375C35.4565 60.0944 35.1468 59.2265 35.4914 58.5011C36.1615 57.0881 36.6384 55.6009 36.9102 54.0788C37.0498 53.288 37.7897 52.7559 38.5966 52.9028C39.3859 53.0438 39.9122 53.7983 39.7726 54.5891C39.4557 56.3656 38.8989 58.0999 38.1183 59.7469C37.8697 60.2717 37.3492 60.5785 36.8041 60.5785Z" fill="#FBD490"/>
<path d="M20.8026 72.4468C20.1048 72.4468 19.4884 71.9423 19.3707 71.2314C19.2384 70.4406 19.7734 69.6905 20.5656 69.5596C25.3819 68.7557 29.9204 66.1405 33.0169 62.384C33.5257 61.7647 34.443 61.6761 35.0623 62.1863C35.683 62.698 35.7702 63.6124 35.26 64.2317C31.723 68.5217 26.5405 71.5091 21.0425 72.4264C20.9611 72.4409 20.8826 72.4468 20.8026 72.4468Z" fill="#FBD490"/>
<path d="M15.9631 46.7579C17.5689 46.7579 18.8706 45.4561 18.8706 43.8504C18.8706 42.2446 17.5689 40.9429 15.9631 40.9429C14.3574 40.9429 13.0557 42.2446 13.0557 43.8504C13.0557 45.4561 14.3574 46.7579 15.9631 46.7579Z" fill="#FBD490"/>
</g>
<defs>
<clipPath id="clip0">
<rect width="78" height="78" fill="white"/>
</clipPath>
</defs>
</svg>
