<svg width="78" height="78" viewBox="0 0 78 78" fill="none" xmlns="http://www.w3.org/2000/svg">
<g clip-path="url(#clip0)">
<path d="M41.8855 78C51.6383 78 59.5445 76.4188 59.5445 74.4682C59.5445 72.5176 51.6383 70.9364 41.8855 70.9364C32.1328 70.9364 24.2266 72.5176 24.2266 74.4682C24.2266 76.4188 32.1328 78 41.8855 78Z" fill="#F4F4F4"/>
<path d="M35.9992 76.8227C42.5011 76.8227 47.7719 75.7686 47.7719 74.4682C47.7719 73.1678 42.5011 72.1137 35.9992 72.1137C29.4974 72.1137 24.2266 73.1678 24.2266 74.4682C24.2266 75.7686 29.4974 76.8227 35.9992 76.8227Z" fill="#D8D8D8"/>
<path d="M62.0582 48.3306C62.0582 44.7105 49.8994 41.7756 34.9011 41.7756C19.9027 41.7756 7.74512 44.7093 7.74512 48.3306C7.74512 48.3836 7.74512 48.4895 7.74512 48.4895C7.74512 63.4879 19.9039 75.6467 34.9023 75.6467C49.9006 75.6467 62.0594 63.4879 62.0594 48.4895C62.0582 48.4883 62.0582 48.3836 62.0582 48.3306Z" fill="#E6E6E6"/>
<path d="M70.2558 21.7667L21.9863 17.0576L21.7577 19.401L70.0272 24.1101L70.2558 21.7667Z" fill="#A46F3E"/>
<path d="M25.83 37.9718C24.7964 37.1148 24.2266 35.9575 24.2266 34.7108C24.2266 33.4641 24.7952 32.3068 25.83 31.4498C26.315 31.0471 26.5811 30.5339 26.5811 30.0017C26.5811 29.4696 26.3139 28.9551 25.83 28.5537C24.7964 27.6966 24.2266 26.5394 24.2266 25.2927C24.2266 24.0459 24.7952 22.8887 25.83 22.0316C26.315 21.629 26.5811 21.1157 26.5811 20.5836C26.5811 20.0515 26.3139 19.537 25.83 19.1356C24.7964 18.2785 24.2266 17.1213 24.2266 15.8745C24.2266 14.6278 24.7952 13.4706 25.83 12.6135L27.3322 14.4265C26.8472 14.8291 26.5811 15.3424 26.5811 15.8745C26.5811 16.4067 26.8483 16.9211 27.3322 17.3226C28.3658 18.1796 28.9356 19.3369 28.9356 20.5836C28.9356 21.8303 28.367 22.9876 27.3322 23.8446C26.8472 24.2473 26.5811 24.7605 26.5811 25.2927C26.5811 25.8248 26.8483 26.3393 27.3322 26.7407C28.3658 27.5978 28.9356 28.755 28.9356 30.0017C28.9356 31.2485 28.367 32.4057 27.3322 33.2628C26.8472 33.6654 26.5811 34.1787 26.5811 34.7108C26.5811 35.2429 26.8483 35.7574 27.3322 36.1588L25.83 37.9718Z" fill="#EEAF4B"/>
<path d="M30.54 37.9718C29.5063 37.1148 28.9365 35.9575 28.9365 34.7108C28.9365 33.4641 29.5051 32.3068 30.54 31.4498C31.025 31.0471 31.2911 30.5339 31.2911 30.0017C31.2911 29.4696 31.0238 28.9551 30.54 28.5537C29.5063 27.6966 28.9365 26.5394 28.9365 25.2927C28.9365 24.0459 29.5051 22.8887 30.54 22.0316C31.025 21.629 31.2911 21.1157 31.2911 20.5836C31.2911 20.0515 31.0238 19.537 30.54 19.1356C29.5063 18.2785 28.9365 17.1213 28.9365 15.8745C28.9365 14.6278 29.5051 13.4706 30.54 12.6135L32.0421 14.4265C31.5571 14.8291 31.2911 15.3424 31.2911 15.8745C31.2911 16.4067 31.5583 16.9211 32.0421 17.3226C33.0758 18.1796 33.6456 19.3369 33.6456 20.5836C33.6456 21.8303 33.077 22.9876 32.0421 23.8446C31.5571 24.2473 31.2911 24.7605 31.2911 25.2927C31.2911 25.8248 31.5583 26.3393 32.0421 26.7407C33.0758 27.5978 33.6456 28.755 33.6456 30.0017C33.6456 31.2485 33.077 32.4057 32.0421 33.2628C31.5571 33.6654 31.2911 34.1787 31.2911 34.7108C31.2911 35.2429 31.5583 35.7574 32.0421 36.1588L30.54 37.9718Z" fill="#EEAF4B"/>
<path d="M35.2489 37.9718C34.2153 37.1148 33.6455 35.9575 33.6455 34.7108C33.6455 33.4641 34.2141 32.3068 35.2489 31.4498C35.734 31.0471 36 30.5339 36 30.0017C36 29.4696 35.7328 28.9551 35.2489 28.5537C34.2153 27.6966 33.6455 26.5394 33.6455 25.2927C33.6455 24.0459 34.2141 22.8887 35.2489 22.0316C35.734 21.629 36 21.1157 36 20.5836C36 20.0515 35.7328 19.537 35.2489 19.1356C34.2153 18.2785 33.6455 17.1213 33.6455 15.8745C33.6455 14.6278 34.2141 13.4706 35.2489 12.6135L36.7511 14.4265C36.2661 14.8291 36 15.3424 36 15.8745C36 16.4067 36.2673 16.9211 36.7511 17.3226C37.7848 18.1796 38.3546 19.3369 38.3546 20.5836C38.3546 21.8303 37.7859 22.9876 36.7511 23.8446C36.2661 24.2473 36 24.7605 36 25.2927C36 25.8248 36.2673 26.3393 36.7511 26.7407C37.7848 27.5978 38.3546 28.755 38.3546 30.0017C38.3546 31.2485 37.7859 32.4057 36.7511 33.2628C36.2661 33.6654 36 34.1787 36 34.7108C36 35.2429 36.2673 35.7574 36.7511 36.1588L35.2489 37.9718Z" fill="#EEAF4B"/>
<path d="M39.9579 37.9718C38.9243 37.1148 38.3545 35.9575 38.3545 34.7108C38.3545 33.4641 38.9231 32.3068 39.9579 31.4498C40.443 31.0471 40.709 30.5339 40.709 30.0017C40.709 29.4696 40.4418 28.9551 39.9579 28.5537C38.9243 27.6966 38.3545 26.5394 38.3545 25.2927C38.3545 24.0459 38.9231 22.8887 39.9579 22.0316C40.443 21.629 40.709 21.1157 40.709 20.5836C40.709 20.0515 40.4418 19.537 39.9579 19.1356C38.9243 18.2785 38.3545 17.1213 38.3545 15.8745C38.3545 14.6278 38.9231 13.4706 39.9579 12.6135L41.4601 14.4265C40.9751 14.8291 40.709 15.3424 40.709 15.8745C40.709 16.4067 40.9763 16.9211 41.4601 17.3226C42.4938 18.1796 43.0636 19.3369 43.0636 20.5836C43.0636 21.8303 42.4949 22.9876 41.4601 23.8446C40.9751 24.2473 40.709 24.7605 40.709 25.2927C40.709 25.8248 40.9763 26.3393 41.4601 26.7407C42.4938 27.5978 43.0636 28.755 43.0636 30.0017C43.0636 31.2485 42.4949 32.4057 41.4601 33.2628C40.9751 33.6654 40.709 34.1787 40.709 34.7108C40.709 35.2429 40.9763 35.7574 41.4601 36.1588L39.9579 37.9718Z" fill="#EEAF4B"/>
<path d="M34.9013 54.8844C49.8998 54.8844 62.0584 51.9496 62.0584 48.3294C62.0584 44.7092 49.8998 41.7744 34.9013 41.7744C19.9028 41.7744 7.74414 44.7092 7.74414 48.3294C7.74414 51.9496 19.9028 54.8844 34.9013 54.8844Z" fill="#FBD490"/>
<path d="M45.6886 52.8513C44.8845 51.8812 43.5954 51.8812 42.7913 52.8513L40.9795 51.3479C41.8365 50.3143 42.9938 49.7456 44.2405 49.7456C45.4872 49.7456 46.6445 50.3143 47.5015 51.3479L45.6886 52.8513Z" fill="#EEAF4B"/>
<path d="M52.752 51.674C51.948 50.7039 50.6589 50.7039 49.8548 51.674L48.043 50.1706C48.9 49.137 50.0573 48.5684 51.304 48.5684C52.5507 48.5684 53.708 49.137 54.565 50.1706L52.752 51.674Z" fill="#EEAF4B"/>
<path d="M57.461 49.3195C56.6569 48.3494 55.3678 48.3494 54.5638 49.3195L52.752 47.8161C53.609 46.7825 54.7663 46.2139 56.013 46.2139C57.2597 46.2139 58.417 46.7825 59.274 47.8161L57.461 49.3195Z" fill="#EEAF4B"/>
<path d="M50.3975 48.1422C49.5935 47.1722 48.3044 47.1722 47.5003 48.1422L45.6885 46.6389C46.5455 45.6052 47.7028 45.0366 48.9495 45.0366C50.1962 45.0366 51.3535 45.6052 52.2105 46.6389L50.3975 48.1422Z" fill="#EEAF4B"/>
<path d="M43.3341 49.3195C42.53 48.3494 41.2409 48.3494 40.4368 49.3195L38.625 47.8161C39.482 46.7825 40.6393 46.2139 41.886 46.2139C43.1327 46.2139 44.29 46.7825 45.147 47.8161L43.3341 49.3195Z" fill="#EEAF4B"/>
<path d="M43.3341 45.7877C42.53 44.8176 41.2409 44.8176 40.4368 45.7877L38.625 44.2843C39.482 43.2507 40.6393 42.6821 41.886 42.6821C43.1327 42.6821 44.29 43.2507 45.147 44.2843L43.3341 45.7877Z" fill="#EEAF4B"/>
<path d="M36.2706 48.1422C35.4665 47.1722 34.1774 47.1722 33.3733 48.1422L31.5615 46.6389C32.4186 45.6052 33.5758 45.0366 34.8225 45.0366C36.0693 45.0366 37.2265 45.6052 38.0836 46.6389L36.2706 48.1422Z" fill="#EEAF4B"/>
<path d="M37.4473 52.8513C36.6433 51.8812 35.3542 51.8812 34.5501 52.8513L32.7383 51.3479C33.5953 50.3143 34.7526 49.7456 35.9993 49.7456C37.246 49.7456 38.4033 50.3143 39.2603 51.3479L37.4473 52.8513Z" fill="#EEAF4B"/>
<path d="M30.3839 52.8513C29.5798 51.8812 28.2907 51.8812 27.4866 52.8513L25.6748 51.3479C26.5319 50.3143 27.6891 49.7456 28.9358 49.7456C30.1826 49.7456 31.3398 50.3143 32.1969 51.3479L30.3839 52.8513Z" fill="#EEAF4B"/>
<path d="M16.2569 51.674C15.4528 50.7039 14.1637 50.7039 13.3597 51.674L11.5479 50.1706C12.4049 49.137 13.5622 48.5684 14.8089 48.5684C16.0556 48.5684 17.2129 49.137 18.0699 50.1706L16.2569 51.674Z" fill="#EEAF4B"/>
<path d="M24.4981 51.674C23.6941 50.7039 22.4049 50.7039 21.6009 51.674L19.7891 50.1706C20.6461 49.137 21.8034 48.5684 23.0501 48.5684C24.2968 48.5684 25.4541 49.137 26.3111 50.1706L24.4981 51.674Z" fill="#EEAF4B"/>
<path d="M28.0294 48.1422C27.2253 47.1722 25.9362 47.1722 25.1321 48.1422L23.3203 46.6389C24.1774 45.6052 25.3346 45.0366 26.5813 45.0366C27.8281 45.0366 28.9853 45.6052 29.8424 46.6389L28.0294 48.1422Z" fill="#EEAF4B"/>
<path d="M18.6114 48.1422C17.8073 47.1722 16.5182 47.1722 15.7142 48.1422L13.9023 46.6389C14.7594 45.6052 15.9166 45.0366 17.1634 45.0366C18.4101 45.0366 19.5673 45.6052 20.4244 46.6389L18.6114 48.1422Z" fill="#EEAF4B"/>
<path d="M69.1252 12.3317L68.7998 9.99976L18.1772 17.0636L18.5026 19.3955L69.1252 12.3317Z" fill="#AF7F58"/>
<path d="M26.9252 71.4309C15.8118 69.712 13.6221 55.632 13.6221 55.632C16.9949 57.339 19.8533 58.8894 20.9188 61.4641C24.7154 61.6619 26.7191 62.8839 26.0799 66.5064C36.308 68.9174 35.943 70.7916 33.0764 72.2267C31.2516 72.0489 26.9252 71.4309 26.9252 71.4309Z" fill="#EDEDED"/>
</g>
<defs>
<clipPath id="clip0">
<rect width="68" height="68" fill="white" transform="translate(5 10)"/>
</clipPath>
</defs>
</svg>
