<svg width="64" height="64" viewBox="0 0 64 64" fill="none" xmlns="http://www.w3.org/2000/svg">
<g clip-path="url(#clip0)">
<path d="M21.9863 41.342V35.205C21.9863 31.942 20.9043 28.728 18.7503 26.278C16.9053 24.179 14.1113 22.342 9.98633 22.342C9.98633 22.342 32.9863 12.779 32.9863 32.342V41.342V41.005V47.663C32.9863 47.663 32.4503 56.235 40.0103 57.506C40.4633 57.582 40.5183 58.205 40.0813 58.346C34.5683 60.134 21.9863 63.764 21.9863 47.662V41.004V41.342V41.342Z" fill="#88C057"/>
<path d="M35.4465 27.544C33.8525 28.216 32.9095 29.709 32.9915 31.292C33.0095 31.632 33.0185 31.982 33.0185 32.342V41.005V41.342V47.663C33.0185 47.663 33.0035 47.718 32.9825 47.81C32.9525 48.903 33.0135 56.304 39.9805 57.499C39.8635 55.596 38.3655 27.073 53.0145 31C53.0145 31 43.7145 24.056 35.4465 27.544Z" fill="#659C35"/>
<path d="M38.7207 9.00599C38.7177 8.99599 38.7167 8.99499 38.7127 8.98499C36.4187 2.95799 31.7187 2.99999 31.7187 2.99999C31.7187 2.99999 27.0177 2.95799 24.7247 8.98499C24.7207 8.99499 24.7197 8.99699 24.7167 9.00699C24.6637 9.17899 23.6017 12.711 22.9877 19.956C22.9837 20.006 23.0097 20.047 23.0267 20.092C27.3997 20.5 31.4587 22.607 32.6357 28.578C33.0057 28.118 33.4747 27.738 34.0367 27.484C35.8777 26.652 37.7707 26.443 39.5777 26.595C39.8797 26.577 40.1807 26.569 40.4817 26.57C40.5527 26.509 40.6187 26.452 40.7197 26.365V24C40.2287 14.002 38.7797 9.19999 38.7207 9.00599Z" fill="#F9D70B"/>
<path d="M28.9847 36C28.9627 36 28.9397 35.999 28.9167 35.998C28.3657 35.961 27.9487 35.484 27.9857 34.933C28.4717 27.7 24.9807 27.014 24.8317 26.989C24.2937 26.896 23.9207 26.388 24.0037 25.849C24.0867 25.31 24.5777 24.939 25.1187 25.009C25.3427 25.04 30.5987 25.866 29.9807 35.068C29.9457 35.595 29.5057 36 28.9847 36Z" fill="#A4E869"/>
<path d="M30.9844 57C30.9414 57 30.8984 56.997 30.8554 56.992C25.8924 56.353 24.8454 52.096 24.9844 49.935C25.0204 49.384 25.5044 48.987 26.0474 49.001C26.5974 49.037 27.0144 49.51 26.9814 50.06C26.9564 50.509 26.8584 54.46 31.1104 55.007C31.6584 55.078 32.0454 55.579 31.9744 56.127C31.9104 56.631 31.4804 57 30.9844 57Z" fill="#A4E869"/>
<path d="M36.981 36.999C36.517 36.999 36.101 36.674 36.003 36.201C35.975 36.063 35.329 32.802 37.189 30.963C38.306 29.859 39.99 29.545 42.196 30.023C42.736 30.141 43.078 30.673 42.96 31.213C42.842 31.752 42.312 32.096 41.77 31.978C40.272 31.648 39.204 31.788 38.599 32.382C37.694 33.272 37.833 35.152 37.963 35.801C38.071 36.342 37.722 36.869 37.182 36.979C37.114 36.992 37.047 36.999 36.981 36.999Z" fill="#88C057"/>
<path d="M40.7187 24.228H38.1757V21.04H40.5347C40.4827 20.345 40.4277 19.673 40.3687 19.04H38.1757V15.852H40.0127C39.9187 15.13 39.8227 14.458 39.7277 13.852H38.1757V10.663H39.1347C38.9047 9.61999 38.7397 9.06899 38.7207 9.00599C38.7177 8.99599 38.7167 8.99499 38.7127 8.98499C38.6687 8.86999 38.6197 8.77299 38.5737 8.66299H38.1747V7.77499C36.8857 5.21399 35.1397 4.02299 33.7857 3.47399H32.9867V3.20599C32.2277 2.99999 31.7187 2.99999 31.7187 2.99999C31.7187 2.99999 31.4387 2.99899 30.9867 3.08099V3.47399H29.6507C28.4767 3.94899 27.0087 4.91199 25.7977 6.82599V8.66299H24.8627C24.8177 8.77299 24.7677 8.87099 24.7237 8.98499C24.7197 8.99499 24.7187 8.99699 24.7157 9.00699C24.6957 9.07199 24.5317 9.61899 24.3017 10.663H25.7977V13.851H23.7117C23.6157 14.459 23.5197 15.125 23.4257 15.851H25.7977V19.039H23.0707C23.0427 19.34 23.0137 19.64 22.9867 19.955C22.9827 20.005 23.0087 20.046 23.0257 20.091C24.7127 20.248 26.3507 20.663 27.7967 21.45V21.04H30.9847V24.228H30.8837C31.6747 25.377 32.2837 26.803 32.6337 28.577C32.7367 28.448 32.8657 28.343 32.9847 28.228V26.228H36.1727V26.787C36.8417 26.646 37.5107 26.572 38.1727 26.554V26.228H40.7157V24.228H40.7187ZM30.9867 19.04H27.7987V15.852H30.9867V19.04ZM30.9867 13.851H27.7987V10.663H30.9867V13.851ZM30.9867 8.66299H27.7987V5.47399H30.9867V8.66299ZM36.1747 24.228H32.9867V21.04H36.1747V24.228ZM36.1747 19.04H32.9867V15.852H36.1747V19.04ZM36.1747 13.851H32.9867V10.663H36.1747V13.851ZM36.1747 8.66299H32.9867V5.47399H36.1747V8.66299Z" fill="#F1B501"/>
</g>
<defs>
<clipPath id="clip0">
<rect width="57" height="57" fill="white" transform="translate(3 3)"/>
</clipPath>
</defs>
</svg>
