<svg width="78" height="78" viewBox="0 0 78 78" fill="none" xmlns="http://www.w3.org/2000/svg">
<g clip-path="url(#clip0)">
<path d="M68.3971 46.666C68.9587 47.4949 68.8696 48.3589 68.8696 49.25C68.8696 49.2711 68.8649 49.2933 68.8649 49.3144C68.8649 49.332 68.8696 49.3484 68.8696 49.366C68.8696 55.3383 55.497 60.7115 39.0012 60.7115C22.5053 60.7115 9.13159 55.3383 9.13159 49.366C9.13159 49.3484 9.13628 49.332 9.13628 49.3144C9.13628 49.2933 9.13159 49.2711 9.13159 49.25C9.13159 48.3589 8.96393 47.4937 9.52552 46.666C6.35766 48.536 5 50.7366 5 53.0908C5 59.8896 14.9655 68.2759 39 68.2759C65.5259 68.2759 73 59.8896 73 53.0908C73 50.7366 71.5638 48.536 68.3971 46.666Z" fill="#E6E6E6"/>
<path d="M46.0344 59.539C43.448 59.539 41.3447 57.4357 41.3447 54.8494C41.3447 54.201 41.8688 53.677 42.5171 53.677C43.1655 53.677 43.6896 54.201 43.6896 54.8494C43.6896 56.1426 44.7412 57.1942 46.0344 57.1942C47.3276 57.1942 48.3792 56.1426 48.3792 54.8494C48.3792 54.201 48.9033 53.677 49.5516 53.677C50.2 53.677 50.724 54.201 50.724 54.8494C50.724 57.4357 48.6207 59.539 46.0344 59.539Z" fill="#231F20"/>
<path d="M9.83997 47.0411C9.38508 47.7903 9.13184 48.5676 9.13184 49.366C9.13184 55.3383 22.5044 60.7115 39.0003 60.7115C55.4961 60.7115 68.8687 55.3383 68.8687 49.366C68.8687 48.5676 68.6154 47.7903 68.1605 47.0411H9.83997Z" fill="#FBD490"/>
<path d="M9.83997 47.0411C9.38508 47.7903 9.13184 48.5676 9.13184 49.366C9.13184 55.3383 22.5044 60.7115 39.0003 60.7115C55.4961 60.7115 68.8687 55.3383 68.8687 49.366C68.8687 48.5676 68.6154 47.7903 68.1605 47.0411H9.83997Z" fill="#FBD490"/>
<path d="M9.83997 42.4828C9.38508 43.232 9.13184 44.0093 9.13184 44.8077C9.13184 50.78 22.5044 56.1531 39.0003 56.1531C55.4961 56.1531 68.8687 50.78 68.8687 44.8077C68.8687 44.0093 68.6154 43.232 68.1605 42.4828H9.83997V42.4828Z" fill="#D8B173"/>
<path d="M68.1605 32.9487C64.8074 28.0445 53.5792 23.7242 39.0003 23.7242C24.4213 23.7242 13.1931 28.0445 9.83997 32.9487C9.38508 33.6979 9.13184 34.4752 9.13184 35.2736C9.13184 40.9598 21.2569 46.0997 36.6554 46.5792V50.7459C36.6554 52.358 37.9744 53.677 39.5865 53.677C41.1985 53.677 42.5175 52.358 42.5175 50.7459V54.8494C42.5175 56.7839 44.1003 58.3666 46.0347 58.3666C47.9692 58.3666 49.552 56.7839 49.552 54.8494V55.3793C49.552 56.669 50.6071 57.7241 51.8968 57.7241C53.1865 57.7241 54.2416 56.669 54.2416 55.3793V44.9554C62.9937 42.913 68.8687 39.2282 68.8687 35.2724C68.8687 34.474 68.6154 33.6979 68.1605 32.9487Z" fill="#A46F3E"/>
<path d="M36.6554 50.7458V46.579C23.4306 46.1675 12.628 42.3173 9.83997 37.637C9.38508 38.3862 9.13184 39.1635 9.13184 39.9619C9.13184 45.6552 21.2851 50.7997 36.7094 51.2687C36.6777 51.0987 36.6554 50.9252 36.6554 50.7458Z" fill="#FBD490"/>
<path d="M68.1554 37.6372C66.3522 40.6562 61.2159 43.3281 54.2412 44.9554V49.6439C62.9933 47.6015 68.8682 43.9166 68.8682 39.9609C68.8682 39.1625 68.615 38.3852 68.1601 37.636H68.1554V37.6372Z" fill="#FBD490"/>
<path d="M43.1939 42.2178C42.5456 42.2178 42.0215 41.6937 42.0215 41.0454C42.0215 40.3971 42.5456 39.873 43.1939 39.873C54.0563 39.873 62.1729 36.6184 62.1729 33.7073C62.1729 33.0589 62.697 32.5349 63.3453 32.5349C63.9937 32.5349 64.5178 33.0589 64.5178 33.7073C64.5178 39.2352 53.5311 42.2178 43.1939 42.2178Z" fill="#FBD490"/>
<path d="M27.2761 39.608H23.7589C22.4692 39.608 21.4141 38.5528 21.4141 37.2632V33.746C21.4141 32.4563 22.4692 31.4011 23.7589 31.4011H27.2761C28.5658 31.4011 29.621 32.4563 29.621 33.746V37.2632C29.621 38.5528 28.5658 39.608 27.2761 39.608Z" fill="#F9D70B"/>
<path d="M36.655 35.4483H33.1378C31.8481 35.4483 30.793 34.3931 30.793 33.1035V29.5862C30.793 28.2966 31.8481 27.2414 33.1378 27.2414H36.655C37.9447 27.2414 38.9999 28.2966 38.9999 29.5862V33.1035C38.9999 34.3931 37.9447 35.4483 36.655 35.4483Z" fill="#FBD490"/>
</g>
<defs>
<clipPath id="clip0">
<rect width="78" height="78" fill="white"/>
</clipPath>
</defs>
</svg>
