<svg width="70" height="70" viewBox="0 0 70 70" fill="none" xmlns="http://www.w3.org/2000/svg">
<path d="M69.2431 21.4982C70.1258 20.5464 69.7383 18.9102 68.5511 18.3812C65.7862 17.1509 66.9195 13.062 64.6082 13.2788C61.9571 13.5264 60.0103 11.5811 60.2594 8.92993C60.507 6.27879 58.5617 4.33195 55.9105 4.58107C53.2594 4.82866 55.8429 0.70739 51.5617 0.232215C51.5617 0.232215 48.5707 -0.922662 48.2862 1.94069L48.2416 13.1019H31.0076C14.0335 13.1019 0.273438 26.862 0.273438 43.8361V70H26.2251C43.3161 70 57.1715 56.1446 57.1715 39.0536V21.8935L68.3112 21.9965C68.7049 21.935 69.0078 21.7504 69.2431 21.4982Z" fill="#698B9E"/>
<path d="M33.7559 61.3561H30.6804C30.6804 49.4844 21.0231 39.8271 9.15137 39.8271V36.7516C22.7177 36.7516 33.7559 47.7882 33.7559 61.3561Z" fill="#5D7989"/>
<path d="M38.7608 56.3506H35.6852C35.6852 44.4789 26.028 34.8216 14.1562 34.8216V31.746C27.7226 31.746 38.7608 42.7843 38.7608 56.3506Z" fill="#5D7989"/>
<path d="M43.5421 51.5681H40.4665C40.4665 39.6964 30.8092 30.0391 18.9375 30.0391V26.9635C32.5038 26.9635 43.5421 38.0018 43.5421 51.5681Z" fill="#5D7989"/>
<path d="M48.547 46.5642H45.4714C45.4714 34.6925 35.8141 25.0352 23.9424 25.0352V21.9596C37.5087 21.9596 48.547 32.9963 48.547 46.5642Z" fill="#5D7989"/>
<path d="M22.7955 14.2445C22.1896 11.1997 20.9333 7.88884 18.5359 4.57953C18.5359 4.57953 5.88911 10.8506 11.0761 20.4664C14.4361 17.5984 18.419 15.4578 22.7955 14.2445Z" fill="#546A79"/>
<path d="M56.6191 44.7972C55.6887 49.7504 53.5758 54.2761 50.5879 58.0945C54.9906 58.5958 61.4508 58.1637 67.8695 53.5119C67.8695 53.5119 63.5637 44.828 56.6191 44.7972Z" fill="#546A79"/>
<path d="M9.15174 54.413C10.8503 54.413 12.2273 53.036 12.2273 51.3374C12.2273 49.6388 10.8503 48.2619 9.15174 48.2619C7.45315 48.2619 6.07617 49.6388 6.07617 51.3374C6.07617 53.036 7.45315 54.413 9.15174 54.413Z" fill="#38454F"/>
</svg>
