<svg width="179" height="179" viewBox="0 0 179 179" fill="none" xmlns="http://www.w3.org/2000/svg">
<g clip-path="url(#clip0)">
<path d="M89.1202 179.001C40.5092 179.001 0 138.434 0 89.5008C0 40.5673 41.0156 -0.759871 90.133 0.000752718C140.263 0.761376 179 40.0603 179.253 89.7543C179.253 138.941 138.744 179.001 89.1202 179.001ZM107.349 55.0192C108.615 55.0192 109.881 55.0192 110.894 55.0192C114.185 54.005 118.236 54.2585 120.008 50.2019C122.54 50.2019 125.072 50.2019 127.351 50.2019C130.136 52.2302 130.895 49.6948 131.908 48.1736C132.921 46.3988 131.908 44.624 130.389 44.1169C126.338 42.3421 122.034 40.8209 118.236 45.1311C117.477 45.1311 116.717 45.1311 115.958 45.1311C112.16 43.8634 108.868 45.6381 106.59 48.1736C104.818 49.9483 103.045 52.9908 107.349 55.0192ZM123.553 132.096C121.274 122.461 117.73 113.334 109.122 109.023C91.6521 100.403 64.8147 101.164 56.4597 128.293C55.9533 130.321 54.9406 131.842 56.4597 133.617C58.232 135.392 60.0042 134.631 62.2829 133.87C69.8784 130.574 77.4738 128.293 85.8289 128.293C96.7157 128.546 107.603 128.039 117.73 134.124C119.755 135.392 123.047 136.152 123.553 132.096ZM50.3833 70.4852C50.3833 79.1056 53.4215 82.9087 60.7638 82.9087C67.8529 82.9087 71.9038 79.1056 71.9038 71.4993C71.9038 63.6396 67.5997 58.0617 61.017 57.8081C55.447 57.5546 50.3833 63.6396 50.3833 70.4852ZM128.87 70.9923C128.87 63.8931 123.806 57.5546 118.236 57.8081C111.907 58.0617 107.349 63.8931 107.349 70.9923C107.349 77.8379 112.16 82.9087 118.489 82.9087C125.325 82.9087 128.87 79.1056 128.87 70.9923ZM55.9533 42.3421C52.9151 42.8492 48.3579 42.5957 48.1047 46.9059C48.1047 50.9625 52.1556 50.9625 55.447 50.9625C59.7511 50.9625 63.5488 52.9908 67.3465 54.5121C69.6252 55.2727 72.157 55.7798 73.4229 52.9908C74.4357 50.4554 72.9166 48.4271 70.8911 47.1594C66.3338 44.8775 61.5233 43.1027 55.9533 42.3421Z" fill="#F53B52"/>
<path d="M123.553 132.095C123.046 136.152 119.755 135.391 117.476 134.123C107.602 128.038 96.7153 128.545 85.5753 128.292C76.9671 128.038 69.3716 130.32 62.0293 133.87C60.0039 134.884 57.9784 135.645 56.2062 133.616C54.6871 132.095 55.4466 130.32 56.2062 128.292C64.5612 101.163 91.3985 100.402 108.868 109.023C117.729 113.333 121.274 122.46 123.553 132.095Z" fill="#962332"/>
<path d="M50.3837 70.4844C50.3837 63.6388 55.4473 57.5538 60.7641 57.8073C67.3469 58.0609 71.9042 63.6388 71.651 71.4986C71.651 79.1048 67.8533 82.9079 60.511 82.9079C53.4219 82.9079 50.1305 79.1048 50.3837 70.4844Z" fill="#962332"/>
<path d="M128.87 70.9915C128.87 79.1048 125.579 82.9079 118.49 82.9079C112.16 82.9079 107.35 77.5835 107.35 70.9915C107.35 63.8923 112.16 58.0609 118.236 57.8073C123.806 57.5538 128.87 63.8923 128.87 70.9915Z" fill="#962332"/>
<path d="M55.9531 42.3413C61.5232 43.1019 66.3336 44.6232 70.8909 47.1586C73.1695 48.4263 74.4355 50.4546 73.4227 52.99C72.1568 55.779 69.625 55.2719 67.3464 54.5113C63.5486 52.99 59.7509 50.9617 55.4468 50.9617C52.4086 50.9617 48.1045 50.7082 48.1045 46.905C48.3577 42.5948 52.915 42.8484 55.9531 42.3413Z" fill="#962332"/>
<path d="M127.604 50.2011C125.072 50.2011 122.54 50.2011 120.262 50.2011C116.464 50.2011 112.919 51.2152 111.147 55.0183C109.881 55.0183 108.615 55.0183 107.603 55.0183C105.83 47.6657 113.426 48.1727 116.464 44.8767C117.224 44.8767 117.983 44.8767 118.743 44.8767C120.768 44.8767 122.794 44.8767 124.819 45.1302C128.11 45.1302 129.376 46.905 127.604 50.2011Z" fill="#962332"/>
<path d="M127.604 50.2011C129.376 46.9051 128.363 45.1303 124.566 45.1303C122.54 45.1303 120.515 44.8768 118.489 44.8768C122.287 40.5666 126.591 42.0878 130.642 43.8626C132.161 44.6232 133.174 46.398 132.161 47.9193C131.148 49.6941 130.389 52.2295 127.604 50.2011Z" fill="#C32D40"/>
<path d="M116.21 44.8768C113.172 48.1728 105.83 47.6657 107.349 55.0184C103.045 52.9901 104.817 49.9476 106.843 47.9193C109.121 45.3838 112.16 43.6091 116.21 44.8768Z" fill="#C32D40"/>
<path d="M110.894 55.0184C112.666 51.2153 116.21 50.2011 120.008 50.2011C118.236 54.2578 114.185 54.0042 110.894 55.0184Z" fill="#C32D40"/>
</g>
<defs>
<clipPath id="clip0">
<rect width="179" height="179" fill="white"/>
</clipPath>
</defs>
</svg>
