<svg width="180" height="180" viewBox="0 0 180 180" fill="none" xmlns="http://www.w3.org/2000/svg">
<g clip-path="url(#clip0)">
<path d="M180 90.6383C181.793 139.404 139.289 179.745 90.6406 180C41.4798 180.255 1.02463 140.17 0.00045149 90.8936C-1.02373 41.617 41.7359 0 90.1285 0C139.289 0 182.817 42.1277 180 90.6383ZM90.1285 116.426C80.9108 117.191 72.2053 119.234 64.0118 122.809C60.6832 124.34 56.5865 126.638 59.147 131.489C61.4514 136.085 65.5481 134.298 69.1327 132.766C73.2295 130.979 77.0702 129.447 81.679 128.936C92.945 127.404 103.443 128.681 113.685 133.532C116.501 135.064 119.83 134.553 121.366 131.234C123.158 127.915 121.11 125.617 118.293 124.085C109.588 118.723 99.6022 117.957 90.1285 116.426ZM108.052 72.766C108.052 80.1702 112.66 85.7872 119.062 85.7872C125.463 85.7872 130.584 80.4255 130.84 73.2766C130.84 67.1489 125.207 60.766 119.83 60.5106C113.429 60.2553 108.308 65.8723 108.052 72.766ZM72.2053 73.5319C72.2053 65.617 67.8525 60.5106 60.9393 60.5106C55.8184 60.5106 49.6733 67.4043 49.4172 73.0213C49.4172 78.8936 55.8184 85.7872 61.4514 85.7872C67.8525 85.7872 72.2053 80.6808 72.2053 73.5319ZM132.12 49.5319C131.608 46.7234 129.559 45.4468 126.743 45.1915C120.342 44.4255 114.709 46.7234 109.076 49.5319C106.515 50.8085 104.467 52.5957 105.747 55.4043C107.284 58.7234 110.1 57.9574 112.917 56.9362C117.269 54.8936 121.622 53.1064 126.743 53.3617C129.303 53.617 131.608 52.3404 132.12 49.5319ZM56.5865 45.1915C55.5623 45.1915 54.5381 45.1915 53.514 45.1915C50.9535 45.4468 48.9051 46.4681 48.6491 49.2766C48.3931 52.3404 50.9535 52.5957 53.2579 53.1064C58.3788 54.1277 63.4997 54.8936 68.3646 57.4468C70.413 58.4681 73.2295 58.4681 74.5097 55.9149C75.7899 53.3617 74.5097 51.5745 72.2053 50.0426C67.0844 46.9787 61.9635 45.4468 56.5865 45.1915Z" fill="#FAA368"/>
<path d="M90.1286 116.425C99.6023 117.702 109.588 118.723 118.294 124.085C121.11 125.872 123.158 127.915 121.366 131.234C119.574 134.298 116.501 134.808 113.685 133.532C103.443 128.425 92.9451 127.404 81.6791 128.936C77.0703 129.447 73.2296 131.234 69.1329 132.766C65.5482 134.298 61.7075 136.085 59.1471 131.489C56.5866 126.638 60.6834 124.34 64.0119 122.808C72.2054 119.234 80.6549 117.191 90.1286 116.425Z" fill="#9D653F"/>
<path d="M108.052 72.766C108.052 65.6171 113.429 60.2554 119.83 60.5107C125.207 60.766 130.84 67.149 130.84 73.2767C130.584 80.4256 125.463 85.7873 119.062 85.7873C112.661 85.7873 108.052 80.1703 108.052 72.766Z" fill="#9D653F"/>
<path d="M72.2051 73.5319C72.2051 80.6808 67.5962 85.7872 61.4511 85.7872C55.8181 85.7872 49.417 78.8936 49.417 73.0213C49.417 67.4042 55.8181 60.2553 60.939 60.5106C67.8523 60.5106 72.2051 65.617 72.2051 73.5319Z" fill="#9D653F"/>
<path d="M132.12 49.5319C131.352 52.3404 129.304 53.617 126.999 53.3617C121.878 52.851 117.526 54.8936 113.173 56.9361C110.356 58.2127 107.54 58.7234 106.004 55.4042C104.723 52.5957 106.772 50.8085 109.332 49.5319C114.965 46.7234 120.598 44.4255 126.999 45.1915C129.816 45.4468 131.608 46.7234 132.12 49.5319Z" fill="#A96C43"/>
<path d="M56.5855 45.1915C62.2185 45.4468 67.3394 46.9788 71.9482 50.0426C74.2526 51.5745 75.5328 53.3617 74.2526 55.9149C72.9724 58.4681 70.1559 58.4681 68.1075 57.4468C63.4987 54.8937 58.1217 53.8724 53.0008 53.1064C50.6964 52.5958 47.8799 52.5958 48.392 49.2766C48.6481 46.7234 50.6964 45.4468 53.2569 45.1915C54.2811 45.1915 55.5613 45.1915 56.5855 45.1915Z" fill="#A96C43"/>
</g>
<defs>
<clipPath id="clip0">
<rect width="180" height="180" fill="white"/>
</clipPath>
</defs>
</svg>
