<svg width="231" height="231" viewBox="0 0 231 231" fill="none" xmlns="http://www.w3.org/2000/svg">
<g clip-path="url(#clip0)" filter="url(#filter0_d)">
<path d="M114.775 198.001C68.2703 196.79 29.7589 160.943 30.0011 112.258C30.2433 63.5744 66.817 26.7585 116.228 27.0007C163.943 27.2429 200.517 63.5744 201.001 112.016C201.486 160.458 163.701 197.274 114.775 198.001ZM144.324 146.168C144.082 142.292 141.418 142.535 138.753 142.535C123.736 142.535 108.719 142.535 93.4601 142.535C91.5224 142.535 89.3425 142.05 88.6159 144.715C88.1315 145.199 87.8892 145.441 87.4048 145.926C84.0139 147.621 84.0139 149.317 87.4048 151.012C87.8892 151.496 88.1315 151.981 88.6159 152.223C89.1003 153.676 89.3425 155.13 91.2802 153.192C107.75 154.161 124.463 154.887 140.933 153.192C142.871 154.887 143.113 153.676 143.355 151.981C144.566 150.285 144.809 148.348 144.324 146.168ZM77.9586 96.9993C77.9586 104.023 81.834 108.625 88.1315 108.625C94.6711 108.625 98.5465 104.508 98.5465 96.7571C98.5465 89.9752 93.9445 84.6466 87.8892 84.6466C82.5606 84.6466 77.9586 90.4596 77.9586 96.9993ZM153.044 96.9993C153.044 90.2174 148.199 84.4044 142.386 84.6466C137.058 84.8888 132.456 90.2174 132.456 96.2727C132.456 103.539 136.573 108.383 142.871 108.383C149.41 108.625 153.044 104.266 153.044 96.9993ZM89.1003 79.318C89.8269 79.318 90.7958 79.318 91.5224 79.318C94.1867 79.0758 97.8198 80.2868 98.062 76.1693C98.3043 72.0517 94.9133 71.5673 91.7646 71.3251C86.1938 70.8406 80.8652 71.5673 76.021 73.9894C73.8411 75.2004 72.1456 76.4115 73.5989 79.0758C74.8099 81.2557 76.5054 82.4667 79.1697 81.2557C82.3184 79.318 85.7094 79.318 89.1003 79.318ZM142.386 71.0829C141.66 71.0829 140.691 71.0829 139.964 71.0829C136.816 71.3251 132.94 71.3251 132.94 75.6848C132.94 80.2868 137.058 79.0758 139.722 79.318C143.84 79.318 148.199 79.0758 152.075 80.7712C154.739 81.9823 156.435 81.0135 157.403 78.5914C158.614 75.927 156.677 74.4738 154.497 73.505C150.622 71.8095 146.504 71.0829 142.386 71.0829Z" fill="#FBC469"/>
<path d="M77.959 96.9986C77.959 90.7011 82.8032 84.6459 87.8896 84.6459C93.9448 84.6459 98.5468 89.9745 98.5468 96.7564C98.5468 104.507 94.6715 108.625 88.1318 108.625C81.5921 108.382 77.959 104.023 77.959 96.9986Z" fill="#9B7B40"/>
<path d="M153.044 96.9985C153.044 104.507 149.411 108.625 143.113 108.625C136.816 108.625 132.456 103.78 132.698 96.5141C132.698 90.2167 137.3 84.8881 142.629 84.8881C148.2 84.4036 153.044 90.2167 153.044 96.9985Z" fill="#9B7B40"/>
<path d="M88.6153 152.222C88.1309 151.738 87.8887 151.254 87.4043 151.011C87.4043 149.316 87.4043 147.62 87.4043 145.925C87.8887 145.44 88.1309 145.198 88.6153 144.714C103.875 144.714 119.134 144.714 134.393 144.714C137.057 144.714 139.722 144.472 141.901 145.925C142.386 150.042 140.206 151.011 136.573 150.769C123.494 150.527 110.414 150.769 97.3349 150.769C95.155 150.769 92.9751 150.042 91.0374 151.98C90.3108 152.222 89.5842 152.222 88.6153 152.222Z" fill="#9B7B40"/>
<path d="M89.0999 79.3174C85.7089 79.3174 82.318 79.0751 79.1693 81.0128C76.7472 82.4661 74.8095 81.0128 73.5985 78.8329C72.1452 76.1686 73.8407 74.7154 76.0205 73.7465C81.107 71.3244 86.4356 70.5978 91.7642 71.0822C94.6707 71.3244 98.3038 71.8088 98.0616 75.9264C97.8194 80.044 94.1863 79.0751 91.522 79.0751C90.7953 79.3173 89.8265 79.3174 89.0999 79.3174Z" fill="#A68344"/>
<path d="M142.387 71.0822C146.746 71.0822 150.864 71.8088 154.739 73.7465C156.919 74.7153 158.857 75.9263 157.646 78.8329C156.677 81.255 154.981 82.2238 152.317 81.0127C148.442 79.3173 144.082 79.5595 139.964 79.5595C137.058 79.5595 133.183 80.7705 133.183 75.9263C133.183 71.5666 137.058 71.5666 140.207 71.3244C140.691 71.0821 141.418 71.0822 142.387 71.0822Z" fill="#A68344"/>
<path d="M91.2803 151.98C92.9757 150.042 95.3978 150.769 97.5777 150.769C110.657 150.769 123.736 150.527 136.816 150.769C140.449 150.769 142.629 150.042 142.144 145.925C142.871 145.925 143.598 145.925 144.566 145.925C144.809 148.105 144.809 150.042 143.355 151.738C142.387 151.738 141.418 151.98 140.933 152.949C124.463 154.887 107.751 154.16 91.2803 152.949C91.2803 152.949 91.2803 152.465 91.2803 151.98Z" fill="#A68344"/>
<path d="M144.323 146.167C143.597 146.167 142.87 146.167 141.901 146.167C139.479 144.714 136.815 144.956 134.393 144.956C119.134 144.956 103.874 144.956 88.6152 144.956C89.3419 142.05 91.5218 142.776 93.4594 142.776C108.476 142.776 123.493 142.776 138.753 142.776C141.417 142.534 144.323 142.292 144.323 146.167Z" fill="#CD9F55"/>
<path d="M87.4055 145.925C87.4055 147.62 87.4055 149.316 87.4055 151.011C84.2568 149.316 84.2568 147.62 87.4055 145.925Z" fill="#CD9F55"/>
<path d="M91.2795 151.98C91.2795 152.465 91.2795 152.707 91.2795 153.191C89.5841 155.129 89.0997 153.676 88.6152 152.222C89.5841 152.222 90.3107 152.222 91.2795 151.98Z" fill="#CD9F55"/>
<path d="M140.934 153.191C141.418 152.222 142.387 151.98 143.356 151.98C143.113 153.676 142.871 154.887 140.934 153.191Z" fill="#CD9F55"/>
</g>
<defs>
<filter id="filter0_d" x="0" y="0" width="231" height="231" filterUnits="userSpaceOnUse" color-interpolation-filters="sRGB">
<feFlood flood-opacity="0" result="BackgroundImageFix"/>
<feColorMatrix in="SourceAlpha" type="matrix" values="0 0 0 0 0 0 0 0 0 0 0 0 0 0 0 0 0 0 127 0"/>
<feOffset dy="3"/>
<feGaussianBlur stdDeviation="15"/>
<feColorMatrix type="matrix" values="0 0 0 0 0.0996528 0 0 0 0 0.661716 0 0 0 0 0.683333 0 0 0 1 0"/>
<feBlend mode="normal" in2="BackgroundImageFix" result="effect1_dropShadow"/>
<feBlend mode="normal" in="SourceGraphic" in2="effect1_dropShadow" result="shape"/>
</filter>
<clipPath id="clip0">
<rect width="171" height="171" fill="white" transform="translate(30 27)"/>
</clipPath>
</defs>
</svg>
