<svg width="171" height="171" viewBox="0 0 171 171" fill="none" xmlns="http://www.w3.org/2000/svg">
<g clip-path="url(#clip0)">
<path d="M84.7745 171.001C38.2703 169.79 -0.241073 133.943 0.0011363 85.2585C0.243346 36.5744 36.817 -0.24151 86.2278 0.000699902C133.943 0.24291 170.517 36.5744 171.001 85.0163C171.486 133.458 133.701 170.274 84.7745 171.001ZM114.324 119.168C114.082 115.292 111.418 115.535 108.753 115.535C93.7363 115.535 78.7193 115.535 63.4601 115.535C61.5224 115.535 59.3425 115.05 58.6159 117.715C58.1315 118.199 57.8892 118.441 57.4048 118.926C54.0139 120.621 54.0139 122.317 57.4048 124.012C57.8892 124.496 58.1315 124.981 58.6159 125.223C59.1003 126.676 59.3425 128.13 61.2802 126.192C77.7504 127.161 94.4629 127.887 110.933 126.192C112.871 127.887 113.113 126.676 113.355 124.981C114.566 123.285 114.809 121.348 114.324 119.168ZM47.9586 69.9993C47.9586 77.0234 51.834 81.6254 58.1315 81.6254C64.6711 81.6254 68.5465 77.5078 68.5465 69.7571C68.5465 62.9752 63.9445 57.6466 57.8892 57.6466C52.5606 57.6466 47.9586 63.4596 47.9586 69.9993ZM123.044 69.9993C123.044 63.2174 118.199 57.4044 112.386 57.6466C107.058 57.8888 102.456 63.2174 102.456 69.2727C102.456 76.5389 106.573 81.3831 112.871 81.3831C119.41 81.6254 123.044 77.2656 123.044 69.9993ZM59.1003 52.318C59.8269 52.318 60.7958 52.318 61.5224 52.318C64.1867 52.0758 67.8198 53.2868 68.062 49.1693C68.3043 45.0517 64.9133 44.5673 61.7646 44.3251C56.1938 43.8406 50.8652 44.5673 46.021 46.9894C43.8411 48.2004 42.1456 49.4115 43.5989 52.0758C44.8099 54.2557 46.5054 55.4667 49.1697 54.2557C52.3184 52.318 55.7094 52.318 59.1003 52.318ZM112.386 44.0829C111.66 44.0829 110.691 44.0829 109.964 44.0829C106.816 44.3251 102.94 44.3251 102.94 48.6848C102.94 53.2868 107.058 52.0758 109.722 52.318C113.84 52.318 118.199 52.0758 122.075 53.7712C124.739 54.9823 126.435 54.0135 127.403 51.5914C128.614 48.927 126.677 47.4738 124.497 46.505C120.622 44.8095 116.504 44.0829 112.386 44.0829Z" fill="#FBC469"/>
<path d="M47.959 69.9986C47.959 63.7011 52.8032 57.6459 57.8896 57.6459C63.9448 57.6459 68.5468 62.9745 68.5468 69.7564C68.5468 77.5071 64.6715 81.6246 58.1318 81.6246C51.5921 81.3824 47.959 77.0226 47.959 69.9986Z" fill="#9B7B40"/>
<path d="M123.044 69.9985C123.044 77.507 119.411 81.6246 113.113 81.6246C106.816 81.6246 102.456 76.7804 102.698 69.5141C102.698 63.2167 107.3 57.8881 112.629 57.8881C118.2 57.4036 123.044 63.2167 123.044 69.9985Z" fill="#9B7B40"/>
<path d="M58.6153 125.222C58.1309 124.738 57.8887 124.254 57.4043 124.011C57.4043 122.316 57.4043 120.62 57.4043 118.925C57.8887 118.44 58.1309 118.198 58.6153 117.714C73.8746 117.714 89.1338 117.714 104.393 117.714C107.057 117.714 109.722 117.472 111.901 118.925C112.386 123.042 110.206 124.011 106.573 123.769C93.4935 123.527 80.4142 123.769 67.3349 123.769C65.155 123.769 62.9751 123.042 61.0374 124.98C60.3108 125.222 59.5842 125.222 58.6153 125.222Z" fill="#9B7B40"/>
<path d="M59.0999 52.3174C55.7089 52.3174 52.318 52.0751 49.1693 54.0128C46.7472 55.4661 44.8095 54.0128 43.5985 51.8329C42.1452 49.1686 43.8407 47.7154 46.0205 46.7465C51.107 44.3244 56.4356 43.5978 61.7642 44.0822C64.6707 44.3244 68.3038 44.8088 68.0616 48.9264C67.8194 53.044 64.1863 52.0751 61.522 52.0751C60.7953 52.3173 59.8265 52.3174 59.0999 52.3174Z" fill="#A68344"/>
<path d="M112.387 44.0822C116.746 44.0822 120.864 44.8088 124.739 46.7465C126.919 47.7153 128.857 48.9263 127.646 51.8329C126.677 54.255 124.981 55.2238 122.317 54.0127C118.442 52.3173 114.082 52.5595 109.964 52.5595C107.058 52.5595 103.183 53.7705 103.183 48.9263C103.183 44.5666 107.058 44.5666 110.207 44.3244C110.691 44.0821 111.418 44.0822 112.387 44.0822Z" fill="#A68344"/>
<path d="M61.2803 124.98C62.9757 123.042 65.3978 123.769 67.5777 123.769C80.657 123.769 93.7364 123.527 106.816 123.769C110.449 123.769 112.629 123.042 112.144 118.925C112.871 118.925 113.598 118.925 114.566 118.925C114.809 121.105 114.809 123.042 113.355 124.738C112.387 124.738 111.418 124.98 110.933 125.949C94.463 127.887 77.7505 127.16 61.2803 125.949C61.2803 125.949 61.2803 125.465 61.2803 124.98Z" fill="#A68344"/>
<path d="M114.323 119.167C113.597 119.167 112.87 119.167 111.901 119.167C109.479 117.714 106.815 117.956 104.393 117.956C89.1336 117.956 73.8744 117.956 58.6152 117.956C59.3419 115.05 61.5218 115.776 63.4594 115.776C78.4764 115.776 93.4934 115.776 108.753 115.776C111.417 115.534 114.323 115.292 114.323 119.167Z" fill="#CD9F55"/>
<path d="M57.4055 118.925C57.4055 120.62 57.4055 122.316 57.4055 124.011C54.2568 122.316 54.2568 120.62 57.4055 118.925Z" fill="#CD9F55"/>
<path d="M61.2795 124.98C61.2795 125.465 61.2795 125.707 61.2795 126.191C59.5841 128.129 59.0997 126.676 58.6152 125.222C59.5841 125.222 60.3107 125.222 61.2795 124.98Z" fill="#CD9F55"/>
<path d="M110.934 126.191C111.418 125.222 112.387 124.98 113.356 124.98C113.113 126.676 112.871 127.887 110.934 126.191Z" fill="#CD9F55"/>
</g>
<defs>
<clipPath id="clip0">
<rect width="171" height="171" fill="white"/>
</clipPath>
</defs>
</svg>
