<svg width="174" height="175" viewBox="0 0 174 175" fill="none" xmlns="http://www.w3.org/2000/svg">
<g clip-path="url(#clip0)">
<path d="M174 88.2435C175.733 135.092 134.151 175.991 85.6388 175C40.3444 174.256 -0.742385 136.331 0.000146622 85.7648C0.742679 40.1557 37.8693 0.495668 85.8864 -8.28039e-05C136.379 -0.495834 175.98 40.6515 174 88.2435ZM87.3714 132.861C96.5293 134.844 104.45 130.878 112.618 127.656C115.835 126.416 118.558 123.938 117.073 120.219C115.588 116.501 112.122 116.501 108.657 118.236C105.192 119.972 101.48 121.211 97.7669 122.202C86.3814 124.929 75.4909 122.946 64.8479 118.236C62.3728 117.245 58.9077 115.758 57.4226 119.724C55.9376 123.442 57.4226 126.416 61.3828 127.904C70.0457 130.878 78.2135 134.596 87.3714 132.861ZM69.7982 69.405C69.7982 61.9688 65.5905 57.0112 59.1552 56.7634C53.4625 56.5155 48.5122 62.2166 48.7598 68.9093C48.7598 76.5934 52.7199 81.303 59.4027 81.0552C65.838 81.0552 69.7982 76.5934 69.7982 69.405ZM125.488 69.6529C125.488 62.4645 121.033 56.7634 115.093 56.5155C109.895 56.2676 104.697 62.4645 104.45 68.9093C104.202 75.8498 108.657 80.8073 114.845 81.0552C121.528 81.303 125.488 77.0892 125.488 69.6529ZM116.825 41.3951C113.855 41.643 110.39 40.4036 109.647 44.6175C109.152 47.592 111.132 49.575 113.855 49.575C118.805 49.8229 123.26 51.0622 127.468 54.2846C129.448 55.7719 132.171 55.2761 134.151 53.0452C136.379 50.3186 133.656 49.0792 132.171 47.592C127.716 43.3781 122.27 41.8909 116.825 41.3951ZM57.6701 41.3951C52.9674 41.8909 48.0172 43.626 43.562 46.6005C41.3344 48.0877 39.1068 50.0707 40.8394 53.2931C42.572 56.5155 45.5421 54.5325 47.2747 53.541C51.2349 51.558 54.7 49.0792 59.1552 49.0792C62.1253 48.8314 64.8479 48.5835 64.6004 44.8654C64.3529 40.8994 60.8878 41.643 57.6701 41.3951Z" fill="#A1C267"/>
<path d="M87.3713 132.861C77.9659 134.596 70.0455 130.878 61.6302 127.904C57.4225 126.416 56.1849 123.442 57.67 119.724C59.155 115.758 62.3727 117.245 65.0953 118.237C75.7383 122.698 86.6287 124.929 98.0142 122.203C101.727 121.211 105.44 119.972 108.905 118.237C112.37 116.749 115.835 116.501 117.32 120.22C118.805 123.938 116.082 126.416 112.865 127.656C104.697 130.878 96.5292 134.844 87.3713 132.861Z" fill="#647B40"/>
<path d="M69.7982 69.4051C69.7982 76.8414 65.838 81.0553 59.4027 81.0553C52.7199 81.0553 48.7598 76.5935 48.7598 68.9094C48.7598 62.2167 53.4625 56.5156 59.1552 56.7635C65.5905 57.0113 69.7982 61.9689 69.7982 69.4051Z" fill="#647B40"/>
<path d="M125.489 69.653C125.489 77.0893 121.528 81.3032 114.846 81.0553C108.658 81.0553 104.45 75.8499 104.45 68.9094C104.698 62.4646 109.895 56.2677 115.093 56.5156C121.033 56.7635 125.489 62.4646 125.489 69.653Z" fill="#647B40"/>
<path d="M116.825 41.3952C122.27 41.6431 127.715 43.1303 131.923 47.5921C133.408 49.0793 136.13 50.3187 133.903 53.0453C132.17 55.2762 129.2 55.772 127.22 54.2847C123.012 51.0623 118.805 49.823 113.607 49.5751C110.884 49.5751 108.904 47.3442 109.399 44.6176C110.142 40.6516 113.855 41.891 116.825 41.3952Z" fill="#647B40"/>
<path d="M57.6702 41.3952C61.1354 41.6431 64.353 40.8995 64.6005 44.6176C65.0955 48.3357 62.1254 48.5836 59.1553 48.8315C54.7001 49.0793 50.9874 51.3102 47.2748 53.2932C45.2947 54.2847 42.5721 56.2677 40.8395 53.0453C39.1069 50.0708 41.3345 48.0878 43.5621 46.3527C48.0173 43.6261 52.9675 41.891 57.6702 41.3952Z" fill="#647B40"/>
</g>
<defs>
<clipPath id="clip0">
<rect width="174" height="175" fill="white"/>
</clipPath>
</defs>
</svg>
