<svg width="175" height="175" viewBox="0 0 175 175" fill="none" xmlns="http://www.w3.org/2000/svg">
<g clip-path="url(#clip0)">
<path d="M87.3767 175C38.8619 175 -0.989618 135.34 0.000481399 86.2608C0.743056 38.9166 37.3767 0.991658 87.6243 0.000156329C134.901 -0.74347 175.001 39.9081 174.753 87.5002C174.753 136.579 135.644 174.752 87.3767 175ZM52.7233 58.003C52 59.4902 50.5 60 49.2579 62.7126C49.2579 65.1914 49.2579 67.6701 49.2579 70.1489C49.2579 72.6276 50.0005 74.6106 52.7233 75.1064C53.2183 75.6021 53.4658 75.85 53.9609 76.3458C54.2084 77.833 54.7035 78.8245 56.4361 78.5766C58.4163 78.5766 60.3965 78.5766 62.6242 78.5766C69.0599 76.0979 72.0302 70.3968 68.8124 66.4307C68.8124 65.1914 68.8124 63.952 68.8124 62.9605C70.7926 60.9775 69.0599 60.2339 67.5747 59.4902C67.0797 58.4987 66.3371 58.003 65.347 58.003C60.3965 56 59.1589 56 52.7233 58.003ZM87.6243 135.588C104.208 136.332 115.842 126.664 119.307 112.04C119.802 110.305 121.535 108.074 119.307 106.339C117.575 105.099 115.842 106.587 114.109 107.082C96.0401 114.519 78.2183 116.006 60.3965 106.587C58.9114 105.843 57.6738 105.347 56.4361 106.339C54.951 107.578 55.446 109.313 55.6936 110.8C57.6738 125.673 72.0302 137.075 87.6243 135.588ZM125.743 66.6786C125.743 59.2424 121.783 55.0285 115.347 55.0285C108.416 55.0285 104.951 58.9945 104.703 67.1744C104.703 73.3713 109.901 78.5766 115.842 78.5766C121.535 78.5766 125.743 73.3713 125.743 66.6786ZM57.9213 38.9166C53.2183 39.4123 47.7728 41.3953 43.0698 44.6177C40.8421 46.105 39.3569 48.3358 41.0896 50.8146C42.8223 53.2934 45.2975 52.3019 47.5252 50.8146C50.9906 48.3358 54.951 46.6007 59.1589 46.3528C61.8817 46.105 64.852 46.3528 64.852 42.3868C64.852 38.6687 61.6342 39.1645 57.9213 38.9166ZM116.832 38.9166C113.367 39.1645 110.149 38.4208 109.901 42.3868C109.654 46.105 112.377 46.3528 115.347 46.6007C119.802 46.8486 124.01 48.8316 127.723 51.3104C129.951 52.5497 132.179 53.0455 133.664 50.8146C135.397 48.5837 133.911 46.3528 131.931 45.1135C127.228 41.3953 121.783 39.4123 116.832 38.9166Z" fill="#63C46B"/>
<path d="M87.6242 135.588C72.0301 136.827 57.9212 125.673 55.446 111.048C55.1984 109.561 54.7034 107.578 56.1885 106.586C57.4262 105.595 58.9113 106.091 60.1489 106.834C77.9707 116.254 96.04 114.766 113.862 107.33C115.594 106.586 117.08 105.099 119.06 106.586C121.535 108.322 119.555 110.305 119.06 112.288C115.594 126.664 103.961 136.331 87.6242 135.588Z" fill="#3A7741"/>
<path d="M125.744 66.6785C125.744 73.3711 121.536 78.3286 116.09 78.5765C110.15 78.8244 104.704 73.3711 104.951 67.1742C104.951 58.9943 108.664 55.0283 115.595 55.0283C121.783 55.0283 125.744 59.4901 125.744 66.6785Z" fill="#3A7741"/>
<path d="M70.9993 68.1459C70.9993 74.8385 65.5916 79.3003 60.146 79.5482C54.2054 79.796 48.2521 74.3428 48.4996 68.1459C48.4996 59.966 52.0686 55.5 58.9993 55.5C65.1874 55.5 71.5 59 70.9993 68.1459Z" fill="#3A7741"/>
<path d="M57.9213 38.9164C61.6342 39.1643 64.852 38.6686 64.852 42.3867C65.0995 46.3527 62.1292 46.1048 59.1589 46.3527C54.7035 46.6006 50.9906 48.5836 47.5253 50.8145C45.2976 52.3017 42.8223 53.2932 41.0896 50.8145C39.357 48.3357 40.8421 46.1048 43.0698 44.6176C47.7728 41.3952 53.2184 39.6601 57.9213 38.9164Z" fill="#3F8445"/>
<path d="M116.833 38.9164C121.784 39.4122 127.229 41.3952 131.932 44.8655C133.912 46.3527 135.397 48.3357 133.665 50.5666C132.18 52.7975 129.704 52.3017 127.724 51.0623C123.764 48.8315 119.803 46.8485 115.348 46.3527C112.378 46.1048 109.655 46.1048 109.902 42.1388C110.15 38.4207 113.368 39.1643 116.833 38.9164Z" fill="#3F8445"/>
</g>
<defs>
<clipPath id="clip0">
<rect width="175" height="175" fill="white"/>
</clipPath>
</defs>
</svg>
