<svg width="175" height="175" viewBox="0 0 175 175" fill="none" xmlns="http://www.w3.org/2000/svg">
<g clip-path="url(#clip0)">
<path d="M87.3767 175C38.8619 175 -0.989618 135.34 0.000481401 86.2608C0.743056 38.9166 37.3767 0.991658 87.6243 0.000156329C134.902 -0.74347 175 39.9081 174.753 87.5002C174.753 136.579 135.644 174.752 87.3767 175ZM52.7233 57.7551C50.7431 58.7466 49.0104 59.986 49.2579 62.7126C49.2579 65.1914 49.2579 67.6701 49.2579 70.1489C49.2579 72.6276 50.0005 74.6106 52.7233 75.1064C53.2183 75.6021 53.4658 75.85 53.9609 76.3458C54.2084 77.833 54.7035 78.8245 56.4361 78.5766C58.4163 78.5766 60.3965 78.5766 62.6242 78.5766C69.0599 76.0979 72.0302 70.3968 68.8124 66.4307C68.8124 65.1914 68.8124 63.952 68.8124 62.9605C70.7926 60.9775 69.0599 60.2339 67.5747 59.4902C67.0797 58.4987 66.3371 58.003 65.347 58.003C61.1391 52.5497 58.1688 52.5497 52.7233 57.7551ZM87.6243 135.588C104.208 136.332 115.842 126.664 119.307 112.04C119.802 110.305 121.535 108.074 119.307 106.339C117.575 105.099 115.842 106.587 114.109 107.082C96.0401 114.519 78.2183 116.006 60.3965 106.587C58.9114 105.843 57.6738 105.347 56.4361 106.339C54.951 107.578 55.446 109.313 55.6936 110.8C57.6738 125.673 72.0302 137.075 87.6243 135.588ZM125.743 66.6786C125.743 59.2424 121.783 55.0285 115.347 55.0285C108.416 55.0285 104.951 58.9945 104.703 67.1744C104.703 73.3713 109.901 78.5766 115.842 78.5766C121.535 78.5766 125.743 73.3713 125.743 66.6786ZM57.9213 38.9166C53.2183 39.4123 47.7728 41.3953 43.0698 44.6177C40.8421 46.105 39.3569 48.3358 41.0896 50.8146C42.8223 53.2934 45.2975 52.3019 47.5252 50.8146C50.9906 48.3358 54.951 46.6007 59.1589 46.3528C61.8817 46.105 64.852 46.3528 64.852 42.3868C64.852 38.6687 61.6342 39.1645 57.9213 38.9166ZM116.832 38.9166C113.367 39.1645 110.149 38.4208 109.901 42.3868C109.654 46.105 112.377 46.3528 115.347 46.6007C119.802 46.8486 124.01 48.8316 127.723 51.3104C129.951 52.5497 132.179 53.0455 133.664 50.8146C135.397 48.5837 133.911 46.3528 131.931 45.1135C127.228 41.3953 121.783 39.4123 116.832 38.9166Z" fill="#63C46B"/>
<path d="M87.6232 135.588C72.0291 136.827 57.9202 125.673 55.445 111.048C55.1974 109.561 54.7024 107.578 56.1876 106.586C57.4252 105.595 58.9103 106.091 60.1479 106.834C77.9697 116.254 96.039 114.766 113.861 107.33C115.593 106.586 117.079 105.099 119.059 106.586C121.534 108.322 119.554 110.305 119.059 112.288C115.593 126.664 103.96 136.331 87.6232 135.588Z" fill="#3A7741"/>
<path d="M125.744 66.6785C125.744 73.3711 121.536 78.3286 116.09 78.5765C110.15 78.8244 104.704 73.3711 104.951 67.1742C104.951 58.9943 108.664 55.0283 115.595 55.0283C121.783 55.0283 125.744 59.4901 125.744 66.6785Z" fill="#3A7741"/>
<path d="M49.2578 69.9008C49.2578 67.4221 49.2578 64.9433 49.2578 62.4645C52.2281 62.2167 52.9707 60.2337 52.7232 57.507C56.9311 56.5155 60.8915 55.7719 65.0994 57.507C66.0895 57.507 67.0796 58.0028 67.3271 58.9943C67.3271 60.2337 67.3271 61.7209 68.5647 62.4645C68.5647 63.7039 68.5647 64.9433 68.5647 65.9348C69.0598 71.3881 63.6142 73.6189 62.3766 78.0807C60.3964 78.0807 58.4162 78.0807 56.1885 78.0807C55.941 76.5934 55.1984 75.8498 53.7133 75.8498C53.2182 75.3541 52.9707 75.1062 52.4756 74.6104C52.4756 72.8753 51.9806 70.6444 49.2578 69.9008Z" fill="#3A7741"/>
<path d="M57.9203 38.9164C61.6332 39.1643 64.851 38.6686 64.851 42.3867C65.0986 46.3527 62.1283 46.1048 59.158 46.3527C54.7025 46.6006 50.9897 48.5836 47.5243 50.8145C45.2966 52.3017 42.8213 53.2932 41.0887 50.8145C39.356 48.3357 40.8411 46.1048 43.0689 44.6176C47.7718 41.3952 53.2174 39.6601 57.9203 38.9164Z" fill="#3F8445"/>
<path d="M116.832 38.9164C121.783 39.4122 127.228 41.3952 131.931 44.8655C133.911 46.3527 135.396 48.3357 133.664 50.5666C132.179 52.7975 129.703 52.3017 127.723 51.0623C123.763 48.8315 119.802 46.8485 115.347 46.3527C112.377 46.1048 109.654 46.1048 109.901 42.1388C110.149 38.4207 113.367 39.1643 116.832 38.9164Z" fill="#3F8445"/>
<path d="M62.625 78.3286C63.8626 73.8669 69.5557 71.636 68.8131 66.1827C72.0309 70.3966 69.0606 75.8499 62.625 78.3286Z" fill="#3F8445"/>
<path d="M65.3469 57.5071C61.139 55.7719 57.1786 56.5156 52.9707 57.5071C58.1687 52.5496 61.139 52.5496 65.3469 57.5071Z" fill="#3F8445"/>
<path d="M52.7224 57.755C52.7224 60.2338 52.2273 62.2168 49.257 62.7125C49.0095 59.9859 50.7422 58.7465 52.7224 57.755Z" fill="#3F8445"/>
<path d="M49.2578 69.9009C51.9806 70.3966 52.4756 72.6275 52.7232 74.8584C50.0004 74.3626 49.2578 72.3796 49.2578 69.9009Z" fill="#3F8445"/>
<path d="M68.8117 62.4646C67.3265 61.721 67.5741 60.2338 67.5741 58.9944C69.0592 59.738 70.7919 60.4816 68.8117 62.4646Z" fill="#3F8445"/>
<path d="M53.9609 76.0977C55.4461 76.0977 56.4362 76.8413 56.4362 78.3286C54.7035 78.5765 54.2085 77.8328 53.9609 76.0977Z" fill="#3F8445"/>
</g>
<defs>
<clipPath id="clip0">
<rect width="175" height="175" fill="white"/>
</clipPath>
</defs>
</svg>
