<svg width="177" height="186" viewBox="0 0 177 186" fill="none" xmlns="http://www.w3.org/2000/svg">
<path d="M93.084 52.0065C99.6019 55.0657 109.786 61.796 111.823 57.5131C113.045 56.2894 112.638 51.3947 111.619 48.7434C110.397 45.8881 106.934 41.8092 104.694 40.5855C100.824 38.546 89.4177 34.0592 89.4177 34.0592L83.3073 32.4276L101.028 30.3881C101.028 30.3881 107.342 34.4671 109.175 34.671C111.008 34.671 112.434 33.2434 113.045 31.2039C113.452 29.5723 111.823 24.2697 110.601 22.4342C109.175 20.5986 108.36 18.9671 105.712 16.7236C104.49 15.7039 101.842 15.5 100.62 15.5C97.9724 15.296 96.954 17.1315 94.7135 17.5394C89.0104 18.7631 74.3452 17.5394 69.6605 20.3947C67.8274 21.4144 64.3648 22.2302 64.3648 25.0855C64.3648 26.7171 62.7353 28.7565 63.9574 30.796C69.2532 39.7697 91.2509 50.7828 93.084 52.0065Z" fill="#EAC2AC"/>
<path d="M96.952 123.592L84.3237 103.605L56.2156 82.8026C56.2156 82.8026 48.6793 77.2961 44.8093 77.0921C41.9578 76.8882 38.4952 79.1316 36.662 81.1711C33.6068 84.2303 30.9589 97.2829 30.9589 97.2829L16.7012 150.105L21.5896 157.651L28.9221 152.961C28.9221 152.961 29.7368 143.375 32.181 139.908C36.662 133.586 41.9578 129.099 43.9946 124.408C45.6241 120.737 49.494 110.539 49.494 110.539L64.7702 132.974C64.7702 132.974 71.2881 141.743 74.3433 143.783C99.8036 161.73 86.3606 136.645 86.3606 136.645L96.952 123.592Z" fill="#EAC2AC"/>
<path d="M141.152 60.7763C133.005 48.5395 112.84 40.1776 102.045 40.7895C98.5827 40.9934 101.638 46.2961 101.231 49.5592C100.008 57.5132 91.4538 66.079 90.4354 71.1777C89.8244 75.2566 93.898 86.8816 93.4906 90.9605C93.0833 93.8158 86.5654 105.237 86.5654 105.237L108.563 117.474L98.1753 153.776C101.842 153.776 108.156 153.165 110.6 150.717C113.655 147.658 118.747 141.132 121.191 137.665C127.506 128.283 140.541 64.8553 140.541 64.8553C140.541 64.8553 143.597 64.4474 141.152 60.7763Z" fill="#C47767"/>
<path d="M108.563 117.27C108.563 117.27 75.1587 90.7566 67.0114 90.7566C64.1598 90.7566 60.6972 92.7961 58.8641 94.8355C55.8088 97.8947 53.161 110.947 53.161 110.947L40.7363 163.566L45.8284 171.316L52.3462 166.829C52.3462 166.829 53.3646 157.243 56.0125 153.368C60.4935 147.046 66.1966 142.559 68.2334 137.868C69.8629 134.197 73.7329 124.204 73.7329 124.204L79.0286 146.638C79.0286 146.638 93.0827 153.368 98.5821 153.368C102.248 153.368 108.563 152.757 111.007 150.309C114.062 147.25 119.154 140.724 121.598 137.257L108.563 117.27Z" fill="#F9DAC6"/>
<path d="M74.1409 118.697L73.3262 124.204L78.6219 135.013L80.4551 127.059C80.4551 127.263 75.974 122.98 74.1409 118.697Z" fill="#EAC2AC"/>
<path d="M125.672 36.9144C125.672 36.9144 122.617 49.7631 123.228 51.8026C123.228 51.8026 111.007 57.1052 107.952 57.5131C105.711 57.921 105.915 51.5986 105.915 51.5986L125.672 36.9144Z" fill="#EAC2AC"/>
<path d="M87.7876 102.178C96.3423 120.125 85.7508 125.224 79.4366 126.243C75.974 126.855 73.1225 124.408 73.1225 124.408C72.3077 130.322 66.1973 140.724 66.1973 140.724C68.0304 143.783 73.9372 145.006 73.9372 145.006C73.9372 145.006 83.5103 155.408 97.9717 155.408C101.638 155.408 107.952 153.164 110.396 150.513C111.211 149.697 119.155 140.724 120.988 137.46C119.969 127.059 108.36 117.474 108.36 117.474C108.36 117.474 95.1202 104.421 89.2134 102.381C88.6023 102.178 86.3618 101.362 86.3618 101.362L87.7876 102.178Z" fill="#779EC6"/>
<path d="M74.1403 144.803C74.1403 144.803 83.7134 155.204 98.1748 155.204C101.841 155.204 108.155 152.96 110.599 150.309C111.414 149.493 112.433 148.474 113.451 147.046C109.174 151.125 102.656 152.756 98.7859 151.125C92.6754 148.881 89.4165 142.559 84.9355 135.829C81.4729 130.73 79.4361 126.039 79.4361 126.039C79.4361 126.039 79.6398 126.243 77.1956 125.835C74.5477 125.428 73.3256 124.204 73.3256 124.204C72.3072 130.322 66.4004 140.52 66.4004 140.52C68.2335 143.987 74.1403 144.803 74.1403 144.803Z" fill="#547DA3"/>
<path d="M54.5863 174.375C54.5863 174.579 54.5863 174.987 54.3826 175.191C54.1789 175.599 51.1237 177.026 50.3089 177.434C49.0868 178.046 48.2721 177.842 46.6426 178.25C45.0132 178.658 45.0132 178.658 42.9764 180.493C37.8843 184.98 34.6254 186.204 31.5702 186C29.9407 186 25.0523 183.961 24.8486 181.105C24.8486 180.697 24.8486 179.27 24.8486 178.862C26.0707 176.211 30.5517 172.539 35.4401 168.664C38.088 166.625 45.6242 168.257 52.1421 171.724C53.5678 172.539 54.5863 173.763 54.5863 174.375Z" fill="white"/>
<path d="M54.3833 167.645C54.7907 169.276 54.7907 171.316 54.3833 173.559C54.3833 173.967 51.1244 175.395 50.3097 175.803C49.0876 176.414 48.2729 176.211 46.6434 176.618C45.014 177.026 45.014 177.026 42.9771 178.862C37.8851 183.145 34.6262 184.572 31.5709 184.368C29.7378 184.368 23.6273 181.717 25.2568 178.25C25.6641 177.434 26.2752 176.211 27.2936 175.191C27.2936 175.191 32.9967 169.888 35.8482 167.237C38.2924 164.789 44.8103 161.322 50.9207 163.566C52.3465 163.974 53.976 166.013 54.3833 167.645Z" fill="#27AAE1"/>
<path d="M41.754 168.664C41.5503 168.257 41.5503 170.908 41.5503 170.908C45.4203 171.724 52.1418 170.296 53.975 166.421C53.3639 164.993 52.1418 163.77 50.9197 163.362C44.8093 161.322 38.0877 164.993 35.4399 167.237C35.0325 167.645 34.6251 167.849 34.2178 168.257C36.4583 168.46 36.4583 169.072 37.0693 167.645C38.2914 164.382 46.6424 162.342 49.494 163.566C58.6597 167.237 42.1614 170.092 41.754 168.664Z" fill="white"/>
<path d="M37.6816 166.625C37.6816 166.625 39.7185 164.382 40.1258 162.546C40.1258 162.546 38.9037 159.895 41.3479 159.079C41.3479 159.079 40.7369 160.099 43.1811 161.73C45.4216 163.362 51.3284 162.75 53.3652 161.322C53.3652 161.322 54.791 163.362 52.3468 165.197C51.9394 165.605 52.9578 166.013 52.7541 166.625C51.532 168.664 41.7553 171.928 37.6816 166.625Z" fill="#BCCAD8"/>
<path d="M34.8291 167.237C34.8291 167.237 35.6438 162.75 39.7175 164.382C43.5874 166.013 41.7543 171.112 41.7543 171.112L34.8291 167.237Z" fill="white"/>
<path d="M34.0133 178.046L32.3838 175.599L38.9016 168.868L43.5863 170.092L34.0133 178.046Z" fill="white"/>
<path d="M37.6798 168.053L30.7546 174.783L27.292 175.191C27.292 175.191 34.8282 168.257 34.8282 167.441L37.6798 168.053Z" fill="white"/>
<path d="M29.9413 162.75C29.9413 162.954 29.9413 163.362 29.7376 163.566C29.5339 163.974 26.4787 165.401 25.664 165.809C24.6456 166.421 23.6272 166.217 21.9977 166.625C20.1646 167.237 20.3682 167.033 18.1277 168.868C13.0357 173.355 9.77676 174.579 6.72152 174.375C5.09206 174.375 0.203682 172.335 0 169.48C0 169.072 0 167.645 0 167.237C1.22209 164.585 5.70311 160.914 10.5915 157.039C13.2394 155 20.7756 156.428 27.2934 160.099C28.7192 161.118 29.9413 162.342 29.9413 162.75Z" fill="white"/>
<path d="M29.5347 156.224C29.9421 157.855 29.9421 159.895 29.5347 162.138C29.5347 162.546 26.2758 163.974 25.4611 164.382C24.239 164.993 23.4242 164.789 21.7948 165.197C20.1653 165.605 20.1653 165.605 18.1285 167.441C13.0364 171.724 9.77752 173.151 6.72229 172.947C4.88914 172.947 -1.22133 170.296 0.408132 166.829C0.815497 166.013 1.42654 164.789 2.44496 163.77C2.44496 163.77 8.14806 158.467 10.9996 155.816C13.4438 153.368 19.9616 149.901 26.0721 152.145C27.7016 152.553 29.331 154.592 29.5347 156.224Z" fill="#27AAE1"/>
<path d="M16.9054 157.243C16.7017 156.835 16.7017 159.487 16.7017 159.487C20.5717 160.303 27.2932 158.875 29.1263 155C28.5153 153.572 27.2932 152.349 26.0711 151.941C19.9606 149.901 13.2391 153.572 10.5912 155.816C10.1839 156.224 9.77651 156.428 9.36914 156.835C11.6096 157.039 11.6096 157.651 12.2207 156.02C13.4428 152.757 21.7938 150.921 24.6453 151.941C34.0147 155.816 17.3128 158.467 16.9054 157.243Z" fill="white"/>
<path d="M12.833 155C12.833 155 15.6846 152.757 15.8882 150.921C15.8882 150.921 14.6661 148.27 17.1103 147.454C17.1103 147.454 16.4993 148.474 18.9435 150.105C21.184 151.737 27.0908 151.125 29.1276 149.697C29.1276 149.697 30.5534 151.737 28.1092 153.572C27.7018 153.98 28.1092 154.388 27.9055 155C26.8871 157.243 17.1103 160.507 12.833 155Z" fill="#BCCAD8"/>
<path d="M10.1846 155.816C10.1846 155.816 10.9993 151.329 15.0729 152.96C18.9429 154.592 17.1098 159.691 17.1098 159.691L10.1846 155.816Z" fill="white"/>
<path d="M9.37067 166.625L7.74121 164.178L14.259 157.447L18.7401 158.671L9.37067 166.625Z" fill="white"/>
<path d="M12.8312 156.632L5.90596 163.158L2.44336 163.566C2.44336 163.566 9.97961 156.632 9.97961 155.816L12.8312 156.632Z" fill="white"/>
<path d="M131.58 18.1512C131.376 15.092 131.376 8.5657 125.062 4.48675C117.118 -0.815884 107.138 1.01964 98.1759 8.36175C92.4728 12.8486 91.2507 20.8025 91.4544 24.0657C91.6581 30.796 91.2507 27.1249 91.6581 31.4078C92.8802 48.9473 104.694 57.3091 115.693 49.7631C120.377 46.4999 123.229 43.6446 125.062 40.9933C129.543 34.8749 131.58 29.7762 131.58 19.171C131.58 18.7631 131.58 18.5591 131.58 18.1512Z" fill="#F9DAC6"/>
<path d="M99.8028 5.71045C99.8028 5.71045 89.6187 8.97361 89.8224 24.0657C89.8224 24.0657 94.507 30.3881 109.58 30.3881C109.58 30.3881 114.875 19.7828 118.949 24.0657L129.54 28.3486L123.023 37.5262C123.023 37.5262 133.207 52.4144 141.354 40.7894C149.501 29.1644 136.669 17.3354 128.726 24.0657C120.986 30.592 113.45 -0.204026 99.8028 5.71045Z" fill="#704C4E"/>
<path d="M135.042 22.0263C133.005 19.171 130.968 22.6381 130.968 22.6381L125.061 39.7697C124.45 43.4408 127.098 41.8092 127.098 41.8092C131.579 38.3421 137.079 24.8816 135.042 22.0263Z" fill="#DD4919"/>
<path d="M125.469 40.1776C125.469 40.1776 123.432 38.3421 123.228 37.3223C122.617 35.0789 126.691 29.1644 123.432 27.9408C119.97 26.921 117.933 33.6513 117.933 33.6513C117.933 33.6513 121.395 23.046 116.1 23.046C112.841 23.046 108.156 17.5394 101.842 18.3552C93.6945 19.5789 95.7313 14.4802 93.2871 15.0921C93.2871 15.0921 99.3976 -2.44741 120.173 -4.11153e-05C140.745 2.65128 131.783 33.4473 125.469 40.1776Z" fill="#704C4E"/>
<path d="M143.392 75.6644C136.671 73.421 125.468 71.5855 124.653 65.671C123.839 63.2237 125.264 58.7368 126.894 57.1052C128.523 55.2697 132.801 53.8421 135.448 54.6579C139.522 55.8815 150.928 63.0197 150.928 63.0197L157.039 66.4868L141.355 47.7236C141.355 47.7236 134.43 46.5 132.801 45.2763C130.967 43.6447 129.949 41.1973 130.153 38.75C130.153 36.7105 132.801 32.6315 134.634 32.0197C136.263 31.4079 137.689 30.3881 140.54 30.3881C141.966 30.3881 144.614 32.4276 145.633 33.4473C148.077 35.4868 148.688 38.1381 150.725 40.3815C155.613 46.0921 169.667 57.3092 173.537 63.8355C174.963 66.4868 178.018 69.9539 177.407 72.8092C177 74.6447 178.018 77.9079 176.592 78.9276C168.649 83.4144 145.429 76.0723 143.392 75.6644Z" fill="#F9DAC6"/>
</svg>
