<svg width="115" height="253" viewBox="0 0 115 253" fill="none" xmlns="http://www.w3.org/2000/svg">
<g clip-path="url(#clip0)">
<path d="M71.2162 143.289L72.1246 137.902L67.5827 131.438L32.5195 100.194L41.2399 95.1668C41.2399 95.1668 68.4911 117.612 76.3031 126.41C77.5748 127.847 80.3 131.079 80.845 132.874C81.2083 134.131 80.4816 137.004 79.9366 138.261C78.3015 142.032 71.9429 147.957 69.9445 151.728C66.856 157.295 58.8624 177.046 58.8624 177.046L52.6854 180.817L61.4058 156.756L71.2162 143.289Z" fill="#EAC2AC"/>
<path d="M32.5201 100.194L29.4316 117.791L57.0462 135.388C57.0462 135.388 53.0493 141.493 52.3226 143.828C49.5975 151.549 49.4158 176.328 49.4158 176.328L52.5043 180.817L61.2247 156.756L71.2168 143.289L72.1252 137.902L67.5833 131.438L32.5201 100.194Z" fill="#EAC2AC"/>
<path d="M46.5082 187.82C46.5082 187.999 46.5082 188.358 46.6898 188.538C46.8715 188.897 49.7783 190.154 50.505 190.513C51.595 191.052 52.3217 190.872 53.7751 191.411C55.2285 191.77 55.2285 191.77 57.227 193.386C61.9505 197.336 64.8573 198.593 67.5824 198.414C69.3992 198.414 74.8494 196.079 73.396 192.847C72.306 190.513 68.3091 186.204 63.9489 182.792C61.5872 180.817 54.5018 182.253 48.6883 185.665C47.4165 186.204 46.3265 187.281 46.5082 187.82Z" fill="white"/>
<path d="M46.6897 181.894C46.3263 183.331 46.1447 185.126 46.6897 187.281C46.6897 187.82 49.5965 189.077 50.3232 189.436C51.4132 189.974 52.3216 189.795 53.775 190.154C55.2284 190.513 55.2284 190.513 57.2268 192.129C61.9503 196.08 64.8571 197.336 67.5823 197.157C69.399 197.157 74.8492 194.823 73.3958 191.591C72.3058 189.256 68.309 184.947 63.9488 181.535C61.587 179.56 55.5917 176.148 49.9598 178.124C48.5064 178.483 46.8714 180.278 46.6897 181.894Z" fill="#DD4919"/>
<path d="M57.4082 183.151C57.5899 182.613 58.4982 184.767 58.4982 184.767C55.0464 185.486 48.8695 184.229 47.0527 180.817C47.5978 179.56 48.8695 178.303 49.9595 177.944C55.5914 175.969 61.5867 179.56 63.9485 181.356C64.3118 181.715 64.6752 181.894 65.0385 182.253C63.0401 182.433 63.0401 183.151 62.4951 181.715C61.405 178.662 53.7747 177.046 51.2313 178.124C42.6925 181.535 56.8632 184.408 57.4082 183.151Z" fill="white"/>
<path d="M60.6788 180.637L59.9521 177.944C59.9521 177.944 61.0421 177.046 59.7704 175.071C59.7704 175.071 59.5887 176.507 57.0453 176.507C54.5018 176.687 51.2317 176.328 49.7783 173.275C49.7783 173.275 48.1432 174.173 49.0516 176.687C49.2333 177.046 48.3249 180.099 48.5066 180.458C49.2333 182.792 56.8636 185.485 60.6788 180.637Z" fill="#EAEAEA"/>
<path d="M63.5856 181.894C63.5856 181.894 63.0406 177.944 59.4071 179.38C55.7736 180.817 58.1354 184.947 58.1354 184.947L63.5856 181.894Z" fill="white"/>
<path d="M64.6753 190.872L66.1287 188.718L60.6785 182.972L56.5 184.049L64.6753 190.872Z" fill="white"/>
<path d="M61.9512 182.074L68.3098 187.999L71.5799 188.358C71.5799 188.358 65.948 181.356 63.0412 180.637L61.9512 182.074Z" fill="white"/>
<path d="M87.2034 129.283C86.2951 128.745 85.5684 129.104 85.5684 130.181C85.5684 131.258 86.2951 132.336 87.2034 132.874C88.1118 133.413 88.8385 133.054 88.8385 131.977C88.8385 130.899 88.1118 129.822 87.2034 129.283Z" fill="#3F3C3A"/>
<path d="M97.9227 221.757V229.657L62.3145 250.127V242.226L97.9227 221.757Z" fill="#C5C5C5"/>
<path d="M62.3142 242.226V250.127L53.0488 244.74V236.84L62.3142 242.226Z" fill="#898989"/>
<path d="M97.9224 221.757L62.3142 242.226L53.0488 236.84L88.657 216.37L97.9224 221.757Z" fill="#DCDCDC"/>
<path d="M51.2313 194.823L51.0496 202.544L15.4414 223.013V215.292L51.2313 194.823Z" fill="#C5C5C5"/>
<path d="M15.4412 215.292V223.013L6.17578 217.806L6.35746 209.906L15.4412 215.292Z" fill="#898989"/>
<path d="M51.231 194.823L15.4412 215.292L6.35742 209.906L41.9656 189.436L51.231 194.823Z" fill="#DCDCDC"/>
<path d="M66.6751 239.892V248.691L59.5898 253V244.022L66.6751 239.892Z" fill="#3F3C3A"/>
<path d="M59.5899 244.022V253L49.0527 247.075L49.2344 238.097L59.5899 244.022Z" fill="#3F3C3A"/>
<path d="M66.6751 239.892L59.5898 244.022L49.2344 238.097L56.3197 233.967L66.6751 239.892Z" fill="#3F3C3A"/>
<path d="M19.6205 212.958V221.757L12.5352 225.886V217.088L19.6205 212.958Z" fill="#3F3C3A"/>
<path d="M12.5351 217.088V225.886L2.17969 219.961V211.163L12.5351 217.088Z" fill="#3F3C3A"/>
<path d="M19.6204 212.958L12.5351 217.088L2.17969 211.163L9.265 207.033L19.6204 212.958Z" fill="#3F3C3A"/>
<path d="M100.827 219.781V228.759L93.7422 232.889V224.091L100.827 219.781Z" fill="#3F3C3A"/>
<path d="M100.827 219.781L93.7422 224.091L83.3867 218.165L90.472 213.856L100.827 219.781Z" fill="#3F3C3A"/>
<path d="M93.1971 232.171V224.27L83.9317 219.063L83.3867 219.422V218.165L93.7422 224.091V232.889L93.1971 232.53V232.171Z" fill="#3F3C3A"/>
<path d="M54.3197 192.847V201.825L47.2344 205.955V196.977L54.3197 192.847Z" fill="#3F3C3A"/>
<path d="M47.2344 196.977V205.955L36.6973 200.03L36.8789 191.052L47.2344 196.977Z" fill="#3F3C3A"/>
<path d="M54.3197 192.847L47.2344 196.977L36.8789 191.052L43.9642 186.922L54.3197 192.847Z" fill="#3F3C3A"/>
<path d="M40.333 176.507L24.709 185.485C27.2524 184.049 30.8859 184.229 34.7011 186.383L50.3251 177.405C46.3283 175.251 42.8764 175.071 40.333 176.507Z" fill="#7D7F89"/>
<path d="M56.6838 199.132L72.3078 190.154L50.3252 177.585L34.7012 186.563L56.6838 199.132Z" fill="#7D7F89"/>
<path d="M66.6757 232.171L82.2997 223.193C84.8431 221.757 86.4782 218.704 86.4782 214.215C86.4782 205.417 80.1196 194.463 72.3076 189.974L56.6836 198.952C64.4956 203.441 70.8542 214.215 70.8542 223.193C70.8542 227.682 69.2191 230.735 66.6757 232.171Z" fill="#7D7F89"/>
<path d="M34.6999 186.563C26.8879 182.074 20.5293 185.665 20.5293 194.643C20.5293 203.621 26.8879 214.395 34.6999 218.884L56.6825 231.453C64.4946 235.942 70.8532 232.351 70.8532 223.373C70.8532 214.574 64.4946 203.621 56.6825 199.132L34.6999 186.563Z" fill="#555760"/>
<path d="M25.7959 126.231L20.709 124.794L32.5178 181.535L37.6047 182.972L25.7959 126.231Z" fill="#C5C5C5"/>
<path d="M31.0644 123.178L25.9775 121.742L20.709 124.794L25.7959 126.231L31.0644 123.178Z" fill="#D4D4D4"/>
<path d="M25.7969 126.231L37.6057 182.972L42.8743 179.919L31.0654 123.178L25.7969 126.231Z" fill="#999999"/>
<path d="M83.3882 150.651L78.1197 145.623L64.8574 198.773L69.9443 203.621L83.3882 150.651Z" fill="#C5C5C5"/>
<path d="M88.8399 147.419L83.5713 142.571L78.1211 145.623L83.3897 150.651L88.8399 147.419Z" fill="#D7D7D7"/>
<path d="M83.3892 150.651L69.9453 203.621L75.5772 200.569L88.8395 147.419L83.3892 150.651Z" fill="#808080"/>
<path d="M87.7483 148.317L85.5682 143.828L75.9395 145.803L78.1195 150.471L87.7483 148.317Z" fill="#C5C5C5"/>
<path d="M97.7405 142.571L95.5604 138.082L85.5684 143.828L87.7485 148.317L97.7405 142.571Z" fill="#B2B2B2"/>
<path d="M85.5682 143.828L95.5603 138.082L85.9316 140.236L75.9395 145.803L85.5682 143.828Z" fill="#B3B3B3"/>
<path d="M85.751 142.93L91.3829 139.698L85.9327 140.955L80.3008 144.187L85.751 142.93Z" fill="white"/>
<path d="M76.302 154.601C77.9371 154.601 79.7538 154.062 81.7522 152.806L100.283 141.673C105.007 138.8 109.003 133.952 109.73 130.181L111.002 123.537C111.547 120.664 110.093 119.407 109.367 118.869C107.55 117.612 104.643 117.971 101.191 119.946L98.2846 121.742L100.646 125.512L103.553 123.717C105.007 122.819 106.097 122.639 106.642 122.46C106.642 122.46 106.642 122.46 106.642 122.639L105.552 129.283C105.188 131.438 101.918 135.568 98.103 137.902L79.5721 149.035C78.1188 149.933 77.0287 150.112 76.4837 150.292C76.4837 150.292 76.4837 150.292 76.4837 150.112L77.7554 143.468C78.1188 141.314 81.3889 137.184 85.2041 134.85L88.1109 133.054L85.7491 129.283L82.8423 131.079C78.3004 133.772 74.1219 138.979 73.3952 142.571L72.1235 149.214C71.5785 152.087 73.0319 153.344 73.7586 153.883C74.4853 154.242 75.3936 154.601 76.302 154.601Z" fill="#3F3C3A"/>
<path d="M45.7811 198.055C40.5125 195.002 36.1523 197.516 36.1523 203.441C36.1523 209.367 40.3309 216.729 45.5994 219.781C50.868 222.834 55.2282 220.32 55.2282 214.395C55.2282 208.29 51.0497 201.107 45.7811 198.055Z" fill="#7D7F89"/>
<path d="M99.7386 121.742C98.8302 121.203 98.1035 121.562 98.1035 122.639C98.1035 123.717 98.8302 124.794 99.7386 125.333C100.647 125.872 101.374 125.512 101.374 124.435C101.374 123.537 100.647 122.28 99.7386 121.742Z" fill="#3F3C3A"/>
<path d="M39.059 224.091C39.604 223.732 40.1491 222.834 40.1491 222.116V218.165C40.1491 216.37 41.4208 214.215 43.0558 213.138L45.2359 211.881C45.4176 211.701 45.5993 211.701 45.781 211.881C46.1443 212.06 46.5077 212.779 46.5077 213.317C46.5077 213.676 46.1443 213.856 46.1443 213.856L44.1459 214.933C43.2375 215.472 42.3291 216.908 42.3291 217.986V221.936C42.3291 223.373 41.4208 224.989 40.1491 225.707L37.969 226.964L36.8789 224.989L39.059 224.091Z" fill="#3F3C3A"/>
<path d="M36.1523 223.013V225.527L37.6057 226.246V223.732L36.1523 223.013Z" fill="#989898"/>
<path d="M39.9688 225.168V227.682L41.4221 228.58V226.066L39.9688 225.168Z" fill="#989898"/>
<path d="M42.3281 226.425V228.939L43.9632 228.041V225.527L42.3281 226.425Z" fill="#6A6A6A"/>
<path d="M25.7969 227.143V229.657L26.5236 230.016V227.502L25.7969 227.143Z" fill="#989898"/>
<path d="M27.4316 227.862V230.555L36.152 225.527V223.013L27.4316 227.862Z" fill="#6A6A6A"/>
<path d="M31.2461 230.196V232.71L39.9665 227.682V225.168L31.2461 230.196Z" fill="#6A6A6A"/>
<path d="M34.3359 231.991V234.505L43.0563 229.478V226.964L34.3359 231.991Z" fill="#6A6A6A"/>
<path d="M33.4277 231.453V233.967L34.3361 234.505V231.992L33.4277 231.453Z" fill="#989898"/>
<path d="M24.8887 228.58V231.094L31.7923 235.044V232.53L24.8887 228.58Z" fill="#989898"/>
<path d="M25.7971 227.143L34.5175 222.116L35.2442 222.475L37.0609 221.397L43.9645 225.348L42.1478 226.425L42.8745 226.784L34.1541 231.812L33.4274 231.453L31.6107 232.53L24.707 228.58L26.5238 227.502L25.7971 227.143ZM32.7007 231.094L41.4211 226.066L39.9677 225.168L31.2473 230.196L32.7007 231.094ZM28.8855 228.759L37.6059 223.732L36.1525 222.834L27.4321 227.862L28.8855 228.759Z" fill="#AAAAAA"/>
<path d="M31.793 232.53V235.044L33.428 233.967V231.453L31.793 232.53Z" fill="#6A6A6A"/>
<path d="M35.7891 112.405V117.253C35.7891 116.175 36.5158 114.739 36.5158 113.302V108.454C36.5158 109.711 35.7891 111.148 35.7891 112.405Z" fill="#6A6A6A"/>
<path d="M7.99276 120.485C11.9896 122.819 17.6215 120.844 21.255 121.383C23.7985 121.742 33.0639 126.051 33.6089 126.231C36.5157 128.026 41.4209 128.026 44.3277 126.231C45.7811 125.333 46.5078 124.255 46.5078 123.178V128.026C46.5078 129.104 45.7811 130.181 44.3277 131.079C41.2392 132.874 36.5157 132.874 33.6089 131.079C33.0639 130.899 23.9801 126.41 21.255 126.231C17.6215 125.872 11.9896 127.667 7.99276 125.333C5.99434 124.255 4.9043 122.639 4.9043 121.203V116.355C5.08597 117.791 5.99434 119.407 7.99276 120.485Z" fill="#6A6A6A"/>
<path d="M8.17356 112.045C4.17672 114.38 3.99504 118.15 8.17356 120.485C12.1704 122.819 17.8023 120.844 21.4358 121.383C23.9792 121.742 33.2446 126.051 33.7897 126.231C36.6965 128.026 41.6017 128.026 44.5085 126.231C47.4153 124.615 47.5969 121.742 44.5085 120.126C44.1451 119.767 36.5148 114.559 35.9698 113.123C35.2431 110.968 38.5132 107.916 34.5164 105.581C30.5195 103.247 23.9792 103.247 19.8007 105.581L8.17356 112.045Z" fill="#6A6A6A"/>
<path d="M46.6905 42.1966C49.0523 40.7601 53.0491 41.2988 55.5926 43.4535C58.136 45.4287 62.4962 52.0724 65.5847 58.1775L76.6668 80.0838L100.466 111.866L110.277 112.045L115 122.46L106.28 127.488L99.3761 120.305L91.9275 119.048L61.0428 82.5976L41.0586 53.5089L42.3303 44.7105C42.3303 44.7105 44.3287 43.6331 46.6905 42.1966Z" fill="#EAC2AC"/>
<path d="M10.356 80.6224L25.7984 71.1057L31.2486 55.6636L24.7083 54.9454L33.4287 49.379L42.1491 44.3513L52.8679 46.6856L59.5899 59.6139C61.2249 62.6664 62.315 67.6941 61.9516 71.1057L61.77 74.3378C61.5883 77.7495 59.4082 81.5202 57.0464 82.9567L52.6862 85.291L47.236 88.5231L43.0575 93.9099L41.9674 100.194L39.969 115.457L31.4303 120.305C31.4303 120.305 30.3403 140.236 31.2486 146.88C31.4303 148.496 32.702 151.728 32.8837 153.344C33.4287 158.731 31.9753 169.684 32.157 175.251C32.702 183.51 34.3371 209.367 34.3371 209.367L28.1602 213.138L23.4366 180.278L24.1633 158.372L22.5282 151.908L22.7099 125.333L24.1633 114.739L11.6278 104.863L7.26758 90.3187L10.356 80.6224Z" fill="#EAC2AC"/>
<path d="M35.6082 56.5614L24.3444 55.3045L17.2591 75.9539L1.81675 85.6501C1.81675 85.6501 0 92.8325 0 95.3464C0 99.1171 3.08847 109.891 3.08847 109.891C3.08847 109.891 12.3539 139.518 13.6256 149.574C14.3523 155.14 11.6272 166.452 12.3539 172.019C13.9889 182.074 25.0711 211.701 25.0711 211.701L28.1596 213.138L23.436 180.278L24.1627 158.372L22.5276 151.908L22.7093 125.333L24.8894 110.07L25.9795 103.786L32.7014 95.1668L44.1469 90.3187L45.237 74.8765L35.6082 56.5614Z" fill="#EAC2AC"/>
<path d="M0 95.1668C0 92.6529 1.81675 85.4705 1.81675 85.4705L4.72354 83.6749C1.09005 93.012 11.8088 108.993 41.0585 94.9872L59.9526 112.764C59.9526 112.764 46.872 113.123 48.1438 129.822L32.3381 119.766L31.4297 120.305V129.283C31.4297 129.283 18.7125 138.082 6.54028 126.051C6.35861 126.051 0 98.9375 0 95.1668Z" fill="#BCCAD8"/>
<path d="M19.2588 70.208L24.3457 55.3045L33.4294 49.379L42.1498 44.3513L52.8686 46.6856L59.5906 59.6139C61.2256 62.6664 62.3157 67.6941 61.9523 71.1058L61.7706 74.3378C61.589 77.7495 59.4089 81.5202 57.0471 82.9567L52.6869 85.291L47.2367 88.5231L43.0582 93.9099C43.0582 93.9099 34.1561 101.811 25.0724 101.811C5.63322 101.631 -2.54214 92.8325 1.81805 85.6501C3.08977 83.4954 7.81331 80.802 11.6285 78.8268C14.7169 77.2108 18.1688 73.44 19.2588 70.208Z" fill="#FC6016"/>
<path d="M19.9848 57.8183L24.345 55.3045C24.345 55.3045 29.2502 60.5117 31.0669 62.846C36.8805 70.0284 49.9611 95.7055 49.9611 95.7055L73.7604 127.488H83.5709L88.2944 137.902L79.574 142.93L72.6704 135.927L65.4034 134.67L34.5187 98.2193L21.2565 79.186C17.4413 73.6196 14.5345 67.1555 14.8979 64.6416C15.2612 62.3073 17.4413 59.2548 19.9848 57.8183Z" fill="#F9DAC6"/>
<path d="M21.6191 221.218C21.6191 221.397 21.6191 221.757 21.8008 221.936C21.9825 222.295 24.8893 223.552 25.616 223.911C26.706 224.45 27.4327 224.27 28.8861 224.809C30.3395 225.168 30.3395 225.168 32.3379 226.784C37.0615 230.735 39.9683 231.992 42.6934 231.812C44.1468 231.812 48.6886 229.837 48.6886 227.323C48.6886 226.964 48.6886 225.707 48.6886 225.348C47.5986 223.014 43.4201 219.602 39.0599 216.19C36.6981 214.215 29.6128 215.652 23.7992 219.063C22.7092 219.602 21.6191 220.679 21.6191 221.218Z" fill="white"/>
<path d="M21.9827 215.113C21.6193 216.549 21.4376 218.345 21.9827 220.5C21.9827 220.859 24.8894 222.295 25.6161 222.654C26.7062 223.193 27.6146 223.014 29.068 223.373C30.5214 223.732 30.5214 223.732 32.5198 225.348C37.2433 229.298 40.1501 230.555 42.8752 230.376C44.692 230.376 50.1422 228.041 48.6888 224.809C48.3255 224.091 47.5988 223.014 46.6904 221.936C46.6904 221.936 41.4218 217.268 38.8784 214.754C36.6983 212.599 30.703 209.547 25.0711 211.342C23.7994 211.881 22.1643 213.676 21.9827 215.113Z" fill="#DD4919"/>
<path d="M33.4279 216.19C33.6096 215.652 33.6096 218.165 33.6096 218.165C30.1577 218.884 23.9808 217.627 22.1641 214.215C22.7091 212.958 23.9808 211.701 25.0709 211.342C30.7028 209.367 36.698 212.958 39.0598 214.754C39.4231 215.113 39.7865 215.292 40.1498 215.652C38.1514 215.831 38.1514 216.549 37.6064 215.113C36.5164 212.06 28.886 210.444 26.3426 211.522C17.9855 214.754 33.0645 217.268 33.4279 216.19Z" fill="white"/>
<path d="M35.9707 214.574C35.9707 214.574 34.8807 210.983 34.8807 209.367C34.8807 209.367 35.9707 207.392 33.9723 206.135C33.9723 206.135 33.9723 207.571 31.6105 208.649C29.2487 209.726 27.6137 210.085 23.4352 208.649C23.4352 208.649 21.9818 209.906 23.7985 211.881C24.1619 212.24 23.2535 213.676 23.4352 214.215C24.5252 216.19 32.1555 219.243 35.9707 214.574Z" fill="#EAEAEA"/>
<path d="M39.788 214.754C39.788 214.754 39.0613 210.624 35.4278 212.24C31.7943 213.676 33.4294 218.345 33.4294 218.345L39.788 214.754Z" fill="white"/>
<path d="M40.5133 224.45L41.9667 222.475L35.9715 216.37L31.793 217.447L40.5133 224.45Z" fill="white"/>
<path d="M37.2422 215.472L43.6008 221.397L46.8709 221.757C46.8709 221.757 39.9673 215.472 39.9673 214.754L37.2422 215.472Z" fill="white"/>
<path d="M7.26808 29.9858C7.26808 29.9858 7.0864 34.6544 12.5366 34.6544C24.3455 34.6544 13.8084 3.94961 23.6188 0.358414C33.4292 -3.05323 37.6077 16.1597 37.6077 16.1597L35.4276 17.2371C35.4276 17.2371 25.9806 3.05181 25.6172 14.9028C25.4355 26.9333 26.3439 43.0937 12.1733 41.4776C3.63459 40.4003 7.26808 29.9858 7.26808 29.9858Z" fill="#A56D51"/>
<path d="M32.5213 45.7878C32.5213 45.7878 32.3396 50.4564 32.8846 52.4316C33.9747 56.0228 41.605 59.2548 44.5118 59.9731C46.5102 60.5118 48.3269 55.3045 48.3269 55.3045L32.5213 45.7878Z" fill="#EAC2AC"/>
<path d="M28.8867 29.4479C29.0684 26.7545 29.0684 21.0086 34.7003 17.4174C41.7856 12.5692 50.6877 14.1853 58.863 20.6494C63.9499 24.5998 65.04 31.6026 64.8583 34.4756C64.6766 40.401 65.04 37.169 64.6766 40.9397C63.5866 56.3819 53.0494 63.7438 43.239 57.1001C39.0605 54.2272 36.5171 51.7133 34.882 49.379C30.8851 43.9922 29.0684 39.5032 29.0684 30.1661C28.8867 29.9866 28.8867 29.6274 28.8867 29.4479Z" fill="#F9DAC6"/>
<path d="M33.9744 48.1221C33.9744 48.1221 36.3361 47.0447 36.5178 46.3265C37.0628 44.3513 33.4293 39.1441 36.3361 38.0667C39.4246 37.1689 41.2414 43.0944 41.2414 43.0944C41.2414 43.0944 39.788 35.1938 41.2414 32.6799C42.6947 30.3456 49.9617 28.7296 55.5936 29.4478C62.8606 30.5252 61.0439 26.0362 63.224 26.5749C63.224 26.5749 57.7737 11.1327 39.2429 13.2874C20.5304 15.6217 28.3425 42.3762 33.9744 48.1221Z" fill="#A56D51"/>
</g>
<defs>
<clipPath id="clip0">
<rect width="115" height="253" fill="white"/>
</clipPath>
</defs>
</svg>
