<svg width="140" height="255" viewBox="0 0 140 255" fill="none" xmlns="http://www.w3.org/2000/svg">
<g clip-path="url(#clip0)">
<path d="M74.0383 20.0151C74.0383 20.0151 72.3075 49.2679 77.8845 53.1169C77.8845 53.1169 48.846 51 42.1152 35.6037C42.1152 35.6037 49.0383 14.6264 74.0383 20.0151Z" fill="#704C4E"/>
<path d="M82.3086 221.513L82.5009 225.17C82.5009 225.17 83.8471 229.789 83.4624 234.408C83.0778 238.834 86.924 241.143 88.4624 241.528C90.0009 241.913 92.8855 241.721 92.8855 237.872C92.8855 234.023 94.8086 226.325 95.3855 222.475C95.9624 219.396 96.5394 211.698 89.8086 211.698C84.0394 211.506 82.3086 221.513 82.3086 221.513Z" fill="white"/>
<path d="M80.9629 221.513L81.1552 225.17C81.1552 225.17 82.5014 229.789 82.1167 234.408C81.7321 238.834 85.5783 241.143 87.1167 241.528C88.6552 241.913 91.5398 241.721 91.5398 237.872C91.5398 234.023 93.4629 226.325 94.0398 222.475C94.6167 219.396 95.1937 211.698 88.4629 211.698C82.6937 211.506 80.9629 221.513 80.9629 221.513Z" fill="#779EC6"/>
<path d="M45.3854 42.1472C45.3854 42.1472 35.3854 38.2982 31.1546 46.1887C26.9238 54.0793 15.193 71.5925 15.193 71.5925C15.193 71.5925 5.19305 65.2415 0.577663 71.5925C-1.34541 74.0944 0.577663 78.9057 7.88535 81.9849C15.193 85.0642 19.4238 77.751 19.4238 77.751C19.4238 77.751 36.9238 64.0868 40.3853 56.0038C43.6546 47.7283 45.3854 42.1472 45.3854 42.1472Z" fill="#EAC2AC"/>
<path d="M60.5762 204.577L60.7685 208.234C60.7685 208.234 62.1146 212.853 61.73 217.472C61.3454 221.898 65.1916 224.208 66.73 224.592C68.2685 224.977 71.1531 224.785 71.1531 220.936C71.1531 217.087 73.0762 209.389 73.6531 205.54C74.23 202.46 74.8069 194.762 68.0762 194.762C62.3069 194.57 60.5762 204.577 60.5762 204.577Z" fill="white"/>
<path d="M59.2305 204.577L59.4228 208.234C59.4228 208.234 60.7689 212.853 60.3843 217.472C59.9997 221.898 63.8459 224.208 65.3843 224.592C66.9228 224.977 69.8074 224.785 69.8074 220.936C69.8074 217.087 71.7305 209.389 72.3074 205.54C72.8843 202.46 73.4612 194.762 66.7305 194.762C60.9612 194.57 59.2305 204.577 59.2305 204.577Z" fill="#779EC6"/>
<path d="M61.9242 198.226C58.2704 188.604 53.8473 175.902 42.1165 174.555C42.1165 174.555 59.6165 140.491 59.4242 124.517L34.0396 120.668L30.7704 131.445C30.7704 131.445 22.6934 174.94 26.3473 180.521C30.0011 186.294 47.5011 193.992 59.4242 207.272C59.2319 207.272 65.7704 207.657 61.9242 198.226Z" fill="#EAC2AC"/>
<path d="M84.0399 215.932C80.3861 206.502 75.963 193.608 64.0399 192.26C64.0399 192.26 76.5399 158.196 76.1553 142.223L48.8476 137.796L47.6938 148.766C47.6938 148.766 44.6169 192.645 48.2707 198.419C51.9246 204.192 69.4246 211.891 81.3476 225.17C81.3476 225.17 87.6938 225.555 84.0399 215.932Z" fill="#F9DAC6"/>
<path d="M30.1934 131.638C30.1934 131.638 25.3857 145.109 47.5011 143.185V148.574C47.5011 148.574 59.6165 164.74 76.5396 147.419C76.5396 147.419 84.0396 135.872 71.7319 119.513C71.7319 119.513 58.655 128.366 45.3857 116.242C45.3857 116.242 35.0011 112.97 36.3473 106.811C36.3473 106.811 29.4242 120.668 30.1934 131.638Z" fill="#F5F0EF"/>
<path d="M47.3091 40.4151C47.3091 40.4151 23.0784 59.8528 34.0399 80.0604C34.0399 80.0604 38.8476 102.77 35.1938 108.543C35.1938 108.543 46.1553 132.792 71.9245 119.513C71.9245 119.513 68.2707 90.8377 76.1553 81.9849C76.1553 81.9849 84.6168 59.8528 64.6168 47.1509L47.3091 40.4151Z" fill="#779EC6"/>
<path d="M70.9619 64.0868C70.9619 64.0868 76.7311 59.2755 83.4619 70.4377C90.0003 81.7924 111.346 103.925 128.846 143.955C128.846 143.955 144.616 144.917 138.462 153.577C132.308 162.43 123.077 151.845 123.077 151.845C123.077 151.845 89.2311 92.5698 74.0388 79.8679C74.0388 79.8679 59.808 73.1321 70.9619 64.0868Z" fill="#F9DAC6"/>
<path d="M66.923 34.449C63.2691 42.3396 65.5768 46.766 64.6153 48.4981C63.0768 51.9622 53.2691 55.0415 49.9999 54.0792C47.8845 53.5019 48.0768 48.4981 48.0768 48.4981C48.0768 48.4981 69.423 29.2528 66.923 34.449Z" fill="#EAC2AC"/>
<path d="M72.5018 16.7434C72.3095 13.8566 72.1172 7.69807 66.1556 3.84901C58.4633 -1.15476 49.2326 0.577316 40.5787 7.50562C35.1941 11.932 34.0402 19.2452 34.2325 22.3245C34.4249 28.6754 34.0402 25.4037 34.4249 29.2528C35.5787 45.9962 46.9249 53.8868 57.3095 46.5735C61.7325 43.4943 64.4249 40.8 66.3479 38.2981C70.5787 32.5245 72.6941 27.5207 72.5018 17.7056C72.5018 17.3207 72.5018 17.1283 72.5018 16.7434Z" fill="#F9DAC6"/>
<path d="M136.54 154.347C135.963 154.155 135.579 154.54 135.579 155.309L135.386 206.117C135.194 247.879 105.771 264.623 69.4249 243.645C33.271 222.86 3.84797 171.86 4.04028 130.098L4.23258 80.0604C3.46335 79.6755 2.88643 79.0981 2.50181 78.5208L2.30951 129.136C2.1172 171.86 32.3095 224.208 69.6172 245.762C106.925 267.317 137.309 249.996 137.309 207.079L137.502 156.272C137.502 155.502 137.117 154.54 136.54 154.347Z" fill="#FF0000"/>
<path d="M59.8068 0.192416C50.7683 -0.769848 46.3453 1.53959 42.3068 4.81128C42.3068 4.81128 32.6914 7.89053 32.6914 22.132C32.6914 22.132 37.3068 28.0981 51.5376 28.2905C51.5376 28.2905 54.4222 22.7094 57.4991 21.5547C58.076 21.5547 58.4606 21.5547 58.6529 21.7471C60.576 24.8264 58.6529 34.6415 55.9606 40.6075L58.6529 41.1849C58.6529 41.1849 59.0376 32.1396 60.9606 28.0981C61.9222 26.7509 63.076 25.5962 64.6145 26.1735C67.8837 27.1358 64.0376 32.9094 64.4222 35.0264C64.6145 35.7962 64.9991 42.7245 64.9991 42.7245C76.3452 36.566 79.6145 2.50185 59.8068 0.192416Z" fill="#704C4E"/>
</g>
<defs>
<clipPath id="clip0">
<rect width="140" height="255" fill="white"/>
</clipPath>
</defs>
</svg>
