<svg width="182" height="264" viewBox="0 0 182 264" fill="none" xmlns="http://www.w3.org/2000/svg">
<g clip-path="url(#clip0)">
<path d="M173.839 180.556C171.595 180.76 169.146 183.413 169.146 183.413C163.025 184.229 173.635 181.373 177.716 187.493C180.98 192.39 176.083 198.51 173.635 200.958C172.003 193.002 167.31 197.082 167.31 197.082C166.494 203.611 165.066 212.179 165.678 214.628C168.126 222.584 177.104 218.708 178.532 215.444C181.388 208.711 179.96 201.978 182 187.085C183.021 180.148 172.615 180.556 173.839 180.556Z" fill="white"/>
<path d="M172.206 180.556C169.962 180.76 167.718 182.597 167.718 182.597C167.718 182.597 170.574 181.781 173.839 186.473C177.103 191.369 174.655 197.694 172.41 200.142C170.778 192.186 166.085 196.266 166.085 196.266C165.269 202.794 163.841 211.363 164.453 213.811C166.901 221.768 175.879 217.892 177.307 214.628C180.164 207.895 177.511 202.182 180.368 187.085C181.388 181.373 178.123 179.74 172.206 180.556Z" fill="#DD4919"/>
<path d="M171.593 198.306C170.98 198.714 173.225 200.346 173.225 200.346C177.102 197.898 178.326 185.045 175.061 181.373C173.837 180.148 171.389 180.148 169.96 180.76C162.819 183.821 165.471 192.594 164.859 196.47C164.859 197.082 165.471 197.898 165.267 198.51C167.308 197.082 167.104 197.286 166.492 195.45C164.859 191.573 164.655 184.025 167.92 182.801C180.366 178.312 175.061 196.062 171.593 198.306Z" fill="white"/>
<path d="M108.547 130.572C108.547 130.572 107.731 188.513 122.626 193.818C137.52 199.122 166.697 196.674 166.697 196.674C166.697 196.674 173.839 188.309 168.33 185.657C154.863 179.536 147.518 173.212 133.031 177.088C133.031 177.088 147.11 134.244 135.888 121.595C124.87 109.15 108.547 130.572 108.547 130.572Z" fill="#F9DAC6"/>
<path d="M91.2033 108.334C91.2033 108.334 66.1069 147.913 63.6585 181.577C61.2101 215.24 63.6585 233.397 63.6585 233.397C63.6585 233.397 69.3715 241.15 75.4926 233.397C75.4926 233.397 76.7168 216.464 80.7975 207.487C86.1024 195.45 79.9814 183.209 79.9814 183.209C79.9814 183.209 109.771 141.997 111.199 132.204C112.423 122.411 91.2033 108.334 91.2033 108.334Z" fill="#EAC2AC"/>
<path d="M79.3689 250.127C79.3689 250.535 79.3689 250.739 79.1648 251.147C78.9608 251.555 75.2882 253.187 74.268 253.799C73.0438 254.411 71.8196 254.411 69.9832 254.819C67.9429 255.227 68.1469 255.227 65.6985 257.471C59.7814 262.572 55.9048 264.204 52.2321 264C50.1918 263.796 44.4787 261.552 44.4787 258.083C44.4787 257.675 44.2747 256.043 44.6828 255.635C46.111 252.575 51.416 248.291 56.9249 243.802C59.9855 241.354 68.9631 243.19 76.5124 247.475C78.1447 248.291 79.3689 249.719 79.3689 250.127Z" fill="white"/>
<path d="M79.1646 242.578C79.5726 244.414 79.7767 246.862 79.1646 249.515C78.9605 250.127 75.2879 251.759 74.4717 252.167C73.0435 252.779 72.0233 252.575 70.187 253.187C68.1466 253.595 68.3507 253.595 65.9022 255.839C59.9852 260.94 56.1085 262.572 52.4359 262.368C50.1915 262.164 43.0502 259.308 44.8865 255.023C45.2946 254.003 46.1108 252.779 47.335 251.351C47.335 251.351 54.0682 245.23 57.3327 241.966C60.1892 239.11 67.7386 235.029 75.0839 237.478C76.7161 238.09 78.7565 240.538 79.1646 242.578Z" fill="#DD4919"/>
<path d="M64.2716 243.802C64.0676 243.19 64.0676 246.454 64.0676 246.454C68.5563 247.271 76.5137 245.638 78.7581 241.354C77.942 239.722 76.5137 238.09 75.0855 237.682C67.7402 235.233 59.9868 239.722 56.9263 242.17C56.5182 242.578 55.9061 242.986 55.498 243.394C58.1505 243.598 58.1505 244.414 58.7626 242.578C60.1909 238.702 69.9846 236.458 73.2492 237.886C84.2671 241.966 64.8837 245.23 64.2716 243.802Z" fill="white"/>
<path d="M59.5781 241.15C59.5781 241.15 63.0467 238.906 62.8427 236.866C62.8427 236.866 61.0064 234.213 63.4548 232.581C63.4548 232.581 63.0467 233.805 66.1073 235.233C68.9638 236.662 74.8808 234.825 75.697 233.193C75.697 233.193 78.7575 234.417 76.5131 237.07C76.105 237.478 77.5333 240.538 77.1252 241.354C75.901 243.802 64.475 247.475 59.5781 241.15Z" fill="#EAEAEA"/>
<path d="M56.3125 241.966C56.3125 241.966 57.3327 236.662 62.0255 238.702C66.7183 240.538 64.4739 246.658 64.4739 246.658L56.3125 241.966Z" fill="white"/>
<path d="M55.2934 254.615L53.457 251.963L61.0064 244.006L66.5153 245.23L55.2934 254.615Z" fill="white"/>
<path d="M59.5781 242.986L51.4167 250.739L47.3359 251.147C47.3359 251.147 56.3135 242.986 56.3135 241.966L59.5781 242.986Z" fill="white"/>
<path d="M94.2641 80.5874C94.2641 80.5874 92.2237 61.8177 21.2192 108.13L13.6699 102.213C13.6699 102.213 80.7977 47.1283 103.446 58.9614C126.298 70.5905 94.2641 80.5874 94.2641 80.5874Z" fill="#EAC2AC"/>
<path d="M81.4082 67.5302C81.4082 67.5302 81.4082 86.5039 95.0786 96.0928L90.9979 108.334C90.9979 108.334 100.792 139.549 135.886 121.595C135.886 121.595 143.435 75.0789 134.662 68.9583C126.092 63.0418 94.0584 41.0078 81.4082 67.5302Z" fill="#3F3C3A"/>
<path d="M143.028 33.8671C143.028 33.8671 143.232 39.1716 137.111 38.9676C124.053 38.9676 135.683 4.2844 124.869 0.204031C113.851 -3.67232 109.158 17.9536 109.158 17.9536L111.403 19.1778C111.403 19.1778 121.808 3.06029 122.217 16.5255C122.625 29.9907 121.604 48.3524 137.315 46.5162C147.109 45.7002 143.028 33.8671 143.028 33.8671Z" fill="#FF9F1E"/>
<path d="M115.074 51.8207C115.074 51.8207 115.278 57.1252 114.666 59.1654C113.442 63.2458 105.077 66.9181 101.812 67.7342C99.5677 68.3462 97.5273 62.6337 97.5273 62.6337L115.074 51.8207Z" fill="#EAC2AC"/>
<path d="M118.952 33.255C118.748 30.1947 118.748 23.8702 112.423 19.5858C104.465 14.2813 94.6717 16.1175 85.6941 23.2581C79.9811 27.7465 78.9609 35.7032 78.9609 38.7635C79.165 45.4961 78.7569 41.8238 79.165 46.1082C80.3892 63.6538 92.2233 72.0185 103.241 64.2658C107.73 61.0015 110.791 58.1453 112.627 55.493C117.116 49.3725 119.156 44.272 119.156 33.8671C118.952 33.8671 119.156 33.459 118.952 33.255Z" fill="#F9DAC6"/>
<path d="M113.443 54.473C113.443 54.473 110.79 53.2489 110.586 52.4328C109.974 50.1886 114.055 44.272 110.79 43.252C107.322 42.2319 105.281 48.9645 105.281 48.9645C105.281 48.9645 107.526 41.8238 105.893 39.1716C104.261 36.5193 96.7117 36.1113 90.5906 36.9274C82.4292 38.1515 83.2453 29.7867 80.7969 30.6028C80.7969 30.6028 86.7139 13.2612 107.73 15.5054C128.337 17.7496 119.768 47.9444 113.443 54.473Z" fill="#FF9F1E"/>
<path d="M121.198 36.1113L120.79 39.7837C120.586 41.2118 118.341 42.2319 114.261 42.8439C105.691 44.068 92.2247 42.4359 84.2673 39.3756C80.1866 37.7435 78.3503 36.1113 78.5543 34.6832C78.5543 34.6832 78.7584 33.051 78.9624 31.0109C79.1664 28.9707 79.7786 29.1747 81.6149 30.3988C82.431 31.0109 83.6552 31.6229 85.0835 32.0309C93.0409 35.0912 106.507 36.7234 115.077 35.4993C116.505 35.2952 117.933 35.0912 118.749 34.6832C120.79 34.0711 121.402 34.0711 121.198 36.1113Z" fill="#3F3C3A"/>
<path d="M74.0643 137.305C74.0643 137.305 72.432 154.85 100.793 152.198L107.526 142.609L107.73 152.402C107.73 152.402 126.297 171.376 140.784 148.73C140.784 148.73 143.232 123.839 138.948 116.291C138.948 116.291 105.894 122.411 94.2638 102.213C94.4679 102.417 79.7773 122.411 74.0643 137.305Z" fill="#D96F6F"/>
<path d="M127.318 69.1623C127.318 69.1623 116.708 75.2828 125.277 86.0958L127.318 119.759C127.318 119.759 94.0598 126.287 88.5508 125.471V134.448C88.5508 134.448 122.217 143.017 139.968 131.592C139.968 131.592 145.885 106.09 139.968 79.7712C135.683 61.8176 127.318 69.1623 127.318 69.1623Z" fill="#F9DAC6"/>
<path d="M173.022 210.343L169.758 209.119L169.962 197.082L173.839 195.858L173.022 210.343Z" fill="white"/>
<path d="M168.331 196.266L166.902 208.915L164.25 209.731C164.25 209.731 165.474 199.122 164.862 198.51L168.331 196.266Z" fill="white"/>
<path d="M172.003 198.918C172.003 198.918 169.963 197.082 167.718 197.286C167.718 197.286 165.678 199.326 163.842 196.878C163.842 196.878 164.454 196.674 166.086 196.674C166.902 196.674 167.514 196.062 167.923 194.634C170.167 187.493 166.086 184.637 164.25 183.821C164.25 183.821 165.27 180.148 167.923 182.597C168.331 183.005 170.167 181.168 172.615 182.189C176.9 183.617 178.124 193.614 172.003 198.918Z" fill="#EAEAEA"/>
<path d="M164.658 199.938C164.454 199.53 160.373 199.122 165.066 197.49C169.759 195.858 173.431 199.53 173.431 199.53C173.431 199.53 166.29 203.815 164.658 199.938Z" fill="white"/>
<path d="M18.9746 96.5007C12.8535 99.765 -16.1196 116.699 12.2414 125.267C15.71 126.287 24.0755 122.819 22.2392 114.046C20.4028 105.07 24.4836 106.09 24.4836 106.09C24.4836 106.09 24.4836 93.6445 18.9746 96.5007Z" fill="#FC6016"/>
<path d="M24.2794 105.886C24.2794 105.886 30.8086 118.331 22.2391 119.147C13.4655 119.759 16.7301 105.682 24.2794 105.886Z" fill="#FC6016"/>
<path d="M14.6899 102.213C14.6899 102.213 18.1585 94.2566 19.9948 94.6646C25.7078 96.2967 31.4208 103.641 28.5643 106.294C25.7078 108.946 13.2616 108.13 14.6899 102.213Z" fill="#FC6016"/>
<path d="M92.2236 125.063C85.4904 122.819 53.6608 113.026 66.515 139.753C68.1473 143.017 72.4321 143.833 80.3895 141.589C86.7146 139.753 89.163 135.876 89.163 135.876C89.163 135.876 98.1406 127.104 92.2236 125.063Z" fill="#FC6016"/>
<path d="M90.3886 128.124C90.3886 128.124 67.9446 130.572 70.189 122.207C72.2294 113.842 91.8168 123.431 90.3886 128.124Z" fill="#FC6016"/>
<path d="M85.8987 126.287C85.8987 126.287 94.2642 123.431 95.0804 125.063C97.7328 130.368 96.3046 139.549 92.4279 139.141C88.5512 138.733 80.5938 129.144 85.8987 126.287Z" fill="#FC6016"/>
</g>
<defs>
<clipPath id="clip0">
<rect width="182" height="264" fill="white"/>
</clipPath>
</defs>
</svg>
